<mxfile host="Electron" modified="2024-04-22T14:56:03.798Z" agent="Mozilla/5.0 (Windows NT 10.0; Win64; x64) AppleWebKit/537.36 (KHTML, like Gecko) draw.io/24.2.5 Chrome/120.0.6099.109 Electron/28.1.0 Safari/537.36" etag="jsnjMp0wiPxLrucwRMrS" version="24.2.5" type="device">
  <diagram name="Strona-1" id="_1e4PrnC12lmdLbcCuFe">
    <mxGraphModel dx="2261" dy="836" grid="1" gridSize="10" guides="1" tooltips="1" connect="1" arrows="1" fold="1" page="1" pageScale="1" pageWidth="827" pageHeight="1169" math="0" shadow="0">
      <root>
        <mxCell id="0" />
        <mxCell id="1" parent="0" />
        <mxCell id="UwD6m1JZilUZtlp3aEf4-63" style="edgeStyle=none;rounded=0;comic=0;orthogonalLoop=1;jettySize=auto;html=1;exitX=0.5;exitY=0.5;exitDx=0;exitDy=0;exitPerimeter=0;entryX=0.5;entryY=0;entryDx=0;entryDy=0;strokeColor=default;align=center;verticalAlign=middle;fontFamily=Helvetica;fontSize=11;fontColor=default;labelBackgroundColor=default;startFill=1;endArrow=classic;endFill=1;flowAnimation=1;" parent="1" source="UwD6m1JZilUZtlp3aEf4-1" target="UwD6m1JZilUZtlp3aEf4-61" edge="1">
          <mxGeometry relative="1" as="geometry" />
        </mxCell>
        <mxCell id="UwD6m1JZilUZtlp3aEf4-1" value="Actor" style="shape=umlActor;verticalLabelPosition=bottom;verticalAlign=top;html=1;outlineConnect=0;" parent="1" vertex="1">
          <mxGeometry x="-150" y="235" width="30" height="60" as="geometry" />
        </mxCell>
        <mxCell id="UwD6m1JZilUZtlp3aEf4-68" style="edgeStyle=none;rounded=0;comic=0;orthogonalLoop=1;jettySize=auto;html=1;exitX=0;exitY=0.5;exitDx=0;exitDy=0;strokeColor=default;align=center;verticalAlign=middle;fontFamily=Helvetica;fontSize=11;fontColor=default;labelBackgroundColor=default;startFill=1;endArrow=classic;endFill=1;flowAnimation=1;" parent="1" source="UwD6m1JZilUZtlp3aEf4-2" target="UwD6m1JZilUZtlp3aEf4-2" edge="1">
          <mxGeometry relative="1" as="geometry">
            <Array as="points">
              <mxPoint x="210" y="290" />
            </Array>
          </mxGeometry>
        </mxCell>
        <mxCell id="UwD6m1JZilUZtlp3aEf4-2" value="" style="rounded=1;whiteSpace=wrap;html=1;" parent="1" vertex="1">
          <mxGeometry x="160" y="90" width="720" height="580" as="geometry" />
        </mxCell>
        <mxCell id="UwD6m1JZilUZtlp3aEf4-3" value="&lt;p style=&quot;line-height: 120%;&quot;&gt;&lt;font style=&quot;font-size: 15px;&quot;&gt;API Gateway&lt;/font&gt;&lt;/p&gt;" style="rounded=1;whiteSpace=wrap;html=1;textDirection=vertical-lr;spacingTop=0;arcSize=26;" parent="1" vertex="1">
          <mxGeometry x="210" y="130" width="100" height="270" as="geometry" />
        </mxCell>
        <mxCell id="UwD6m1JZilUZtlp3aEf4-7" value="Auth Server&lt;div&gt;&lt;br&gt;&lt;/div&gt;&lt;div&gt;&lt;br&gt;&lt;/div&gt;&lt;div&gt;&lt;br&gt;&lt;/div&gt;&lt;div&gt;&lt;br&gt;&lt;/div&gt;" style="rounded=1;whiteSpace=wrap;html=1;arcSize=14;" parent="1" vertex="1">
          <mxGeometry x="210" y="440" width="100" height="90" as="geometry" />
        </mxCell>
        <mxCell id="UwD6m1JZilUZtlp3aEf4-8" value="" style="endArrow=classic;html=1;rounded=0;entryX=0.5;entryY=0;entryDx=0;entryDy=0;exitX=0.5;exitY=1;exitDx=0;exitDy=0;fixDash=0;flowAnimation=1;" parent="1" source="UwD6m1JZilUZtlp3aEf4-3" target="UwD6m1JZilUZtlp3aEf4-7" edge="1">
          <mxGeometry width="50" height="50" relative="1" as="geometry">
            <mxPoint x="250" y="400" as="sourcePoint" />
            <mxPoint x="255.33333333333326" y="460" as="targetPoint" />
          </mxGeometry>
        </mxCell>
        <mxCell id="UwD6m1JZilUZtlp3aEf4-9" value="" style="rounded=1;whiteSpace=wrap;html=1;arcSize=12;" parent="1" vertex="1">
          <mxGeometry x="360" y="130" width="480" height="410" as="geometry" />
        </mxCell>
        <mxCell id="UwD6m1JZilUZtlp3aEf4-10" value="" style="endArrow=classic;html=1;rounded=0;exitX=1;exitY=0.5;exitDx=0;exitDy=0;fixDash=0;flowAnimation=1;" parent="1" source="UwD6m1JZilUZtlp3aEf4-3" target="UwD6m1JZilUZtlp3aEf4-21" edge="1">
          <mxGeometry width="50" height="50" relative="1" as="geometry">
            <mxPoint x="410" y="400" as="sourcePoint" />
            <mxPoint x="460" y="350" as="targetPoint" />
          </mxGeometry>
        </mxCell>
        <mxCell id="UwD6m1JZilUZtlp3aEf4-11" value="" style="shape=image;verticalLabelPosition=bottom;labelBackgroundColor=default;verticalAlign=top;aspect=fixed;imageAspect=0;image=data:image/webp,UklGRmQ2AABXRUJQVlA4WAoAAAAQAAAAowEAowEAQUxQSNoYAAAR/2IgbVv8N4uIuCAiErQi2iNCwU+CSEhoSWiFBB627ZOcxP+/V3VCQgIEZXXXwW1wXFEcURY3QAUGBBKSqlfd9/N/HN1dXUlIPs3nuxjR/wmQP/7/4/8//v/j/z/+/+P/P/7/4///x6wZkSXP/Os3ayPxlilzGh2OyN5CiVP5gpF5NFHamPsWHJHgc1PWVPbBkYmT6bJmxXOE+lclzVQXowT2WimT/MvRwt1qGXO9DY5U2LtlzGdwxOJH+WLuc+QQq6ZsaRyAo+ditmx5glHE9aRcmTwFRzA6c+XKR45m7JsSxdzqYUTxsSlPkq/giMZhszy5zRH+rDRpnmF0odMqS15zhJE7phQxrVNwhKN3y5QhsgGOdHyVMvQGRx0flB+mvg+OeJxNm7JDHujow+vSo3YMjnycXys73oJjID6XHIvd8YD3So1k03MsxI+6KTEWFGOCfyjlZf0EHBNx3igtzHOOD/hoyoqpE3BsRHeprHjjOUb6zZJiTjFOwN8oJSa+c6wgTidNCXHHguMFVkuI5Bc4ZuKkWTqY5xg7iA1TMpi5Djh+4FbZ8AFjyW7NlArXuuAYCntXysTKATiW4rhaIiRPOK5gLSkPGofgmIqLW7Wxf8JcFi/BsRV0Y799ay6HRTfGEBz7wceXQnWP48z/BHEyZS6Buz2w3PL/yCV4AJbc6EwOnXmO0ov4XBkyM98Byy+9M2wfwRIc3ybMUM13yzF9KMNsDsFyvNcYIvOEJRnwvjI8jUOwJEf72vD8A5bm2DTDcq1bpum9IUm+sFT/XR+OWz2UadC/h2MXLNVxOhSPWLbh32TgzOwpWLLDLpuBe4vSjdiuDlrrAizf7N0BM3tgCY92dbBWWM5xLRkgU//hWcrjtGUGRx55lHPEugxu8wIs69zSwCQfUd7h18SgLFyApT304YCYHbDEx1EyGPdR6hFvBsE0T8u+3pzpn7z0YLmHD5X+1c/Bkh92qW/JFlj647DaJ3MHVwF81h8zsQdeAfqTadMPeeCuBIjX0s/qOXg14Gb7kLzlVQG+VuNdb4NXhLB34m2AV4bYT2LdcFcIxGqk2gmvFOyMiWGeK3iVgHdJBFPZA68UcTJpikny5arhV10imvsWVwnwf5sYYj7zSvF3TeI227g6gFuU2KvA1cGGRG8eXRmgMxfPPCauBoD3STyRvauC07r0c+ECVwHQB9LXyiZxFbBXN32RWQuUfuBt6fffYPm3KX2v/ETZh9/T/TMPHco94Lnpn0zsE+XeaVMGcaZX7vGODOZrX+ZhRwZ05hTlHbrLZkDkH6C046YMbPVnaYez5uDIkkVZ91QG11S3SzocNMzgiMwTZRy4YmSg18q5XRnw2hHKN5xfGzR5oijbwDUzcPUf5Vt7WgZ/niU7+ECG8V9fsu3IMJprZyjT0F02wyCyRpRn4KaR4awfl2lnTRnWWx5lGfBYhnbia3n2c3J4zE2iHANXzPCIfCrLvslQN36jDMP57HCZFx7lF7CWDJc0jsqwzrQM+02P8mtFhv9T6YVvMvxmoYNyC/b2JSDJB2KcATHu82v1MpD6+TgDjv3oTsvleFcxtvjD9/+O+e/XF+SSrH4FxhPgZNpIWWhujC9/GSkR/x1XvkipWD/FOIKLhXLBvPAYP8DNSrkgk8fjB2BnpGy8pRg3qE+lfPw0dmCvVj6YuQ7GC+g9KSGT98R48a1aRkitM1ag15Ry8qHD+AD/WkrK2o9x4nzGlBTmHjAuAKtSWiY748N+pbyQWgfjAeyilJjmtcc4AGxVywyZ7nAs4JyUmyseY4B/LSVn8mUMwK+GKTlksYtRB/9QSs/KJ2DU/ZwoP6TpONqhLSlDn+po8++kDDWTBxhlaF83ZYjII2J0ga+lJK3ujbLDibJEZnoYVXB3pTQ16x6j6ttEiTLbHlHAkilPRJ5yRK1LqZr8wCjyx81yRW5bjB5g1ZQslS+j6LgmZeucxaiBW5by9eXo+Sjlq2kc+dGCzrwpX8T8TYwScD2RMrZyPFrOqlLOLvYwOuAeSkmbfBoh/Fkva8xCB6MC/q4pa8S8wsjcTKTE3dcReTQpZW59eTTeaEq5a0ak/PH/H8maPHO5mDwzTpnAOCY8yxQWEzPDhMYywcWMmEq1WpucrFWrlUSMiWECB8eIJJVqtTY5WatWKkbMoJjAfpjQKCZ8CKqzrVZrZmam1Wo1YlRmW6EzlVTSKjw1MzPTSs+0Wq2ZVnomEZGJVuDsRBwz3Wq1ZlqZU4Umbz77uHt03u3ZXvt4f/Pl3ekIk61WqzXTarVas9WBmf3r1fbPk07P2u750e7G6o36YNRbrdZMKz1b68NUK38mSnOmFVofvGcXnfytarFk7aITenYzdbNTvH3aKXy6bERWO6FrSQyzfNoJPCow8+53zyPXqwdsZ3OhgEm2OoHPBsPc/XbhvHoE+t7Jm+YAJJ86+RfbJlpy3Am8VszMtTvB6wNn3sBZ6zrWOt2dMIWeWA+gh7THxwkRMffgEeydtc4h0wLw1nlvb4rIXNsj13fmYiSfAUAdAOibkMrixx4AMBdKAqT/fq8WVNlVOEXm20FoPD4EAShDAaC7sVDp13TXwyrSvjMXrXqBwIVC5vpvANZ5eIXa/2YHb40ge1adR4SnFiSpniTwaUIyCAbCKaD0yrSCJOFcRrIOMBc/TITbDiRpSeJ8xuQ1N7sAwMAUSRD24KaYEKhnGlzvm0lWjhUESRdEAsDFp2afNgAoM4EX/WB+IVM/BElCvVendskMh1olnC12twtmaGp30hSDcyC9kg4puBTpeimpt0P4xBSqnYNp9QSeSW7yVw9gUZdBErSv6iFOOTCN9x5gpiIsDXTuJP2YAanIIv5L+odCpnnoAQ8457oO3Rsy+ClVB5L+e5HbbTATlsSvackMUacgCQuSDiSpPgM2Q/5S5BBHTVMgec0sOHX71Swz+bEHsBhySHDveoByYG4eAMz1rhiBi/d1E828JrwyHyv9Y6HKV2vhVeEVHrqSDIe3sCSJ3TBzowfmKP1RXYp4q8xUT5JwKdowU9sLIP6RcDNzBmZqt+duSKaZ/EEwovcBJDqzJgeDYpatZaiNQOf5uRbLTB6Alvng70qsLkF4D+25Asl3MNC5JzKMZg2OcBHM3AmYb3G+IGFQVTATykzvUt4HidwjAi5mw2QDTMN563eqWTP7BGPCBRHd+8lgJU/UIUhRDI7g7nQkue2gPoDQO7E6ahXqPDzCJjYQgt4LGRbQ+2Jm5gIMVDtnwpwF8+Gz6JUkXYHkWwD5JQkxNzTDW9BiQdJm8gfBuL0w+oulwbrRs57BXgESHgEOJPi9buJ8B5VB2KjEmehYBdNg2GsF84HNypC8IqgoZJo/ENR9IIHmHpxnqEMOHUh6DZPpDvLQu20CavsgSXUk/TvJTDYABiPQAUHE54Ga76pjKODPjn7s7f867gLIgCNJ4H0SZZFUH0Scz8SpXsA79SAZVHlOMB/+cyJDskbQFavue+d8Dvi0EnSXYCC8EvkWAC0A9JZNlnmtyCF2JXBFQcJ5kDhsmoyX6hkM0J/ubW1sfj9RECH4NTNIUwdwDAR0685so1at1qfm/z4EUooU4Z/HSLYIy4JYi3ROEt45H/bYgfnAj4YZJmUBM/EFIJzzIAl9KcHmXgA6841GM7jRbDYbjWaz2TCS0zqzHjl4mFc9BgkHksBTSZs7PTiHPKB38HzWSNpMPd678MhBe8EM0jrVB8B9vSYiRkSMEak8PvMkXRZxsWgKmdkzOBYEeo0oE20wDWd9XnLHgyGnU0aGCIXkg4Ik4VU98G813mlDBvAR1PkMoj1jstYJqIKpo1pGZR8k1PkM+C83JyQ0WVhXZKC9KOlBuWVVmY/uo6qEm+kNwCtz8VmKr3poEYLPo1QvNIME5rPM/S4YiMNrRobJF0n+BZgL575IwcGTXdBZZOBtkjLLPdB6puEXJPMxwLRaT8A+NlLQyNwJQcLelUGqncAy35/OSGEja94yAHcKmf/gUIg4qJsoNo8LWTMXnoHoLRgZKoew5I2CAdiZGLqbXRCqIIn2XCrZgVcw66NkNjpgNtT5o2WJOfMZAJ4lg2SeqEMeOosSM1mzyCNO6kX+oioj2FsSRTWLOQttz0Cc35QhTvUY9kTBkLOmGbrKF4KE9SSxm1pWp8zGxaLJWGUeifa8iWJqn4k3iQxS5bs65gI3TBSpfAvy9wpUD+GYC+QRW3HoENY88s76HNgHMmwuKHlEMBDHU0aGTuZ6IAl1nuCKkfqJU2aDH4ykJ/bAfHRvS2TT+L5ZMxHg8TZWq2eRA30jseu/kUdsVILMHas+B+0LBLjZON4HTf0ACXUKktAXZti8Bt3ugoHoLBrpy8nkYMjLFAl1wEHDPPdg3mldMludAOCZxK/XJd9Udj1JqHMe67HeKph/NhVNHjgEHE8GJR/hkAV98jDEf4gCaIBp7oFpQJ3Cv0xk2BwCkiUFswHvLm5KxCB/2hiQxhFSJJziyfxvMBf6ULIfMxCHTRMvOAW1zpNgrMqZZy74TKKb+gGQQ38naLJtwZzT6eoJMuCtP2+ZGFTkmIktZqXVfaqaYYNlwMIpmIZ3qtp5IH2yZw0zGMkqkUF4+/sUzAV+1nM+Iw98aWQwku/OA2TqbRwzBwSc1+KJrDIPeB/0WpXZ4LoxbwGS6jzgn0oU2Jz6NsF8cKcuQ27WoHn7zTOQhFqrIPBM+uTtaUMGNDnJobddx5D7Jitp54GYkQGp7ILZ4FocecyQdelnwzGPhyGTTpFDnRKz1AVhlSTxMw4dSILL7wGGfJuQS4TaBbyqepCEfSF9goP9sBb17QNTSBZ6SEEV6hV5O0ayWz6P+CnDsB7HrEORBb3dF/mOHLLXCFiFMhcbIlL5ClUww9+MA2W668FAHMzIpQJnnQczgfVK35QkonK3UizZSqkF2SMsMtCekWxzi3nA2jAgUvLRq1VktK/152UAeN3k1PZ6zEVvSURkScFs8IeJQkUKYCBO6nIp+BS8OvVgPtx10y8FI8cxSxeAKkkqSOdJAmtJ3qMQPhgC9ZGq3xzonXoQx1OmL/eC7uQtdDUH2K+lZD+P0CUTx6eCgWdyOYBenXqAwcB6xfQHjvH3Ikiy5h2YdkrCOxLdacl7HkAsDoFDHDOxCwUJ75we1Puz6BCwkrepzOPfJmNFkUO+S6LAFiJO65fBG2+tghGhd6Q/DoMlyRGYCSVJ7+AfScCrALi5y6O2D69Mw+3XpK9zvZDHObMOOeBFXdJm+iQLUHvcjELVQsRe9RJ4rZaR0Z7rC5QDJisWWS5FuO8m5PVwqTIenU8RPwfPrCOPfC7ZyXuC8OrUA6tx6FAMz5PhW4NaxCH3J0wfFANX+0WkaJFhb0rIiwBiYfAsYk3sgnTIOKibviy6kJUMM/0bzNWTyRyZhXdWQRJoV+JoMaJ77VKAKqJAn0k8OA6c3PJZLgV+qQY9DeH9gfMaS6rfSHpN+eOp/twFA25nyIpjtnf6PsmTTx7MBh/HgRYjjqcuAUvCIgbhFkw0hwxE3o1kPuX4lLYk6F4A8HLgFNGSTYJ0IIn2rPT1RdB81jdkwCr0pglYtAHYm4hChwj8lAwd1ZNwiiyEEEfNWHBMo9uJuxVJWudIAST9KwmfRx6xe3nImxQsSOit/nwLoDYkvaApqAPp7i8vLd9YznzQziO6i0ET7RzvshBA9O4NHyxJeocUbJi+i6VIoXPz2vWoTYls3hMpJfF7xoTVegF0zQGDMpp5mKJXknjXl4ZlLnBsUsk3glQHklDb69lcBwbifVD1wmkGHTJ6CFDXnh4+B5KE9STai68UeQRuxYEy47RhZKCfhxw2CsjPHHiLJ2awFH2YQ4oOJM4qfTCrRMAHERGz3APhlIA65xHMoF4jjM5neE9C386cIguqxF516KAp0jvfu2WSzyFE+3oU9Xky2C/68SoFdeqBvZoZJFjGk8opQBIWBFfjmfovzzx/J2MdXhWqqh6MD74JA1RTcAQ+TiSPiJR3IKHPho6KDKJ3V8TMtoE8YqdqIlgOFW2UBQfvrCdJ6C2JbyKo9kPWwDSUxGnTxJJ7Pe16Cw8QvydTE7+d9c4q2O+TZhgJB5IK7IuIvE/BMQ03fVmAzysiIje6QfqPFLlLRZYfFo1hJg+tgtk4njKx5jZmI7AvrR5SVBD6WiKbxjFIeqi3ajcqqcfWqoL993alCOFAwn2rpyp7gCoyiKPmsMFlcK0imc+BPMItmwL3oIR67WrvZHI4rI8g5j3AwN2JJE7lh/vZNAXQp+R7FiwJt2yimOQrA6H3jYhUTwAOpLovhQgH8nzapMxS13rmAm+TIaMDSfysmQxT/w7kEb8aRbTT9U4B4LQxHD6KLPgQ+PcTJoKZPQDdt2YR3x95pEhRlURvKYnyRhFyXBMRuU83IA5uthDhPG8byV5xyCN6N4cNmtqdyBKZboeoe1cEzjtPksPjophPIYTfmxZTwMj93yDV7zdNkEOfaodZVJA4WShmzLuuZya8c3pTRKT62UIdBgCO2ClGql+Q/HdAHrU9a4aLDgXklkWeBe+bIoQ6YHhoo0j9HAEET27XTFBldoMgCcfPNRMAxz7JskMGHKHqH1ZNgaktwCkAdVbhdyR9rWM94XwKkbO8J9x1U4x+Ps80fwEB+FodMl+o8hbIccDptTAqSKjTwfsnx8UxzxUBJHT3ybTJMs2VrXOAaVV+bwao75usAVkXVuHt5+VERIyIEZHak4Ner9frdp33INFZyHgHKAnvPPnjY8yNH8hQEHiVROBCnsh8N8j9PWTQIpIcAhnoktgyYd4xrb3eswfRb8Z5AYuU9VGkskuEEB7+4P3Tv1aefTgA1THXgjsTeY5Z/61GfTwhYhqHIOGsOmTv3q1XKklSqc6+OGemsxYkgVVJT1pQQZLO+aZEvd5GyoHEQb1Pch/IghK4Plx0KCLTx5qlJPAsDBYpwqsidicSoepJRRxpHoZ5h0DCBXgP3svy0AwSHjE780ZE5s9UFVTPNABcHO5+/frjRAGQhIN3qoC+k8xXBL2miHdiYpjKZyJFEv6vflU3gAwH0h80h+R1lmoheeRsyitJ9BZNkPoMEt4qCYIF+0GohXeRZKmtAbBgsAbA8XMtCx5ZcAALA525lCx1QVKZD8ADHiBI0oG08Ba7NSMipnEEEDaF7oxEvp3ymsJRBD8fJPV2BiwJizfDggw6FDIf4EAqCO90tx4EzSGpzoPF+0HCqbOR5F7b5zkwHAjQb03JcVlQRkVnPsM87IG0AQXhQFI9/G7DSPqOBUn1qa1qLPMTpANJgndMGNT5hTCZuwBJr1QF3I3hWIPLUF9Iqt+gSg/vPODfBzGIgFMUa8eDV3fR7sSS5VOPDOdZ0OfBf5gwOd4xDYco3nbmMsQsnwOxoEzD4eOkkcwdMO1I+Acmltz3gGXWl0oInPNgEfNMQTo4JYnzWTMUVAeS0GJy7Qze9dSBJLiSBCGEpHeKImeRoNapd1SNJgvHHiRVWbSXg95axUiO9SlYFgfUqu/MZ4ks/QcfBxZZvfXESOasMlNBntcltmkcwWsG0b5ucuAcSBaSyg4Ap54pbFaGA96BpItgVujdhXMKkvg9E+K1AOFVEdaO8xwe9A4E4knzrQO8snA3BeC/O5JrKrs9koSiCNSpB4kQmVq3RASvIEng+J7kmk0iA0o8lfjJWyqyiJeS6qpTMLOQ1H842/HQXs/C954OCdWRVC0msqZU0DvrAOwkAbBFSMIqAlwnzguCqiT6YmT+P99DMQsS0I2KCXIk0WNB76wyM8zIrTN4AGGwJAG6D4nkmrkumG1xKn001+EC2pXUuTK/mCxc2J5j/qIZCkAdgF6M+h68kgRUnX9uckAHhCHtnXoSALyN5p0C9NoPEak93LWER5gH0N5YSiTQVL6DhAMAkgAJVVWQSBOduQARqT/ddwAQ4B3SZxtLiQS8tCBAEupe90NkxwMZAFdTF0iTRIzkmYd3SmT+bAzeW6a9km6vVswskKk00FlM3SdJeEaFV6YVF3FeUkGSUB71RWRi6UMXtNY5AARAsr02W5Fgk3wn6cB8qAIMvpgPE1O7sdUjiWy1IPHf6nRiJLByCAWzL5ZMX2YtA/+ri0z0GLhYTJItEl6ZibcDJ7e/bG9vb+9sbu1sPatIxAc7m9uByyIis5+3t7e3N7fj7mx92t7e3t7cWY9zc2dre3t7e2drc/tNVfo9eXft68HJeafT7bSPD7++ul2VwubZ9vbmduDm5tbOznb4x6YUn7z39tvB8Vm70z77ffTj0+p8RQpWPmxvb25n7rypSF+Tte38Tx8mRcz7ne3czUYEmdzY3t7Z2tzZ3t7e3nk9eJIEGomaBEtmMpAmjiSBRvpvpFKfnr0+N3d9dmqyIkYimqTfRmIaqdSnWteuXWtNNyaMRDRJoJE+myRURMQkgRLVJKHyP0pjJNMYuVSNMSIixsgf///x/x////H/H///8f8f///x//9HJlZQOCBkHQAAMLsAnQEqpAGkAT5RHItEJKGLz+4OJAKCWdu4XHOIso7cAGKv8wGqL9b/Iz2gaw/Vv6R+kvyw92bv36q88vjH+3f2792v7d9B/Q15gH8G/lf/M/tXWO8wH7d+tv6MfQA/TL/2dgP6AH7X///1sf+v/oP+p///ok/sH+W/aH4E/5v/kv/77AH/b9QD/pdWP2c/z34y/r15gf578iPXvrg+1n7ndLaOR80+/GePtL4AX5N/UO/53KO4/6b0BfaT6V5rn2f/P9Hvs37AX8n/pvo9/yPDD+0/8D2Av4z/YP+f/bvYw/4P9V+antx/Pf8t/6/838An8i/o//U/vX+h98b12/tP7B/6pf9z8/6xv0sjkIaHW9jcjLH1Yyx9WMsfhhMyaX9DhofaKIsJmTS/ob+LfXhMvv4ocND7RRFhMyaX8if2iiLCZk0v6HDQ+0URYTMlbGih9ooiwmZNL+hw0PtFEWCG0ZkV8YMUWR7bog27BV6nuXsofaKIsJmTS/kToBWjaJH9g3IOxAEHw7WU7/GaKH2iiLCZk0eK1psEPCsD+SMVlHKWz9+b/G1m0sVx0LISx+OEQsvYxdb81QouuGAiETvA7TmyNsm9kmSVCapSOhirHraD+F0khsAzzhouq4j6fY127j5XqvG5cpDaIBpolKRC/mWHze8wwNazNfw+qSjFQWx+kGN6EPKG9TYTor1ql14gm0D7TIS0OPKM86otmtYOk1oPDzfVS6iqBxLW/jAuXagrV4EnK3jtESGJXHfg7IwF4D7kPv0hdel6QuimNECNrVz1enUYPvfQk1w/n8YQ26OO9M2jJDOzONqFFcYy4U+2/33x3ow10b6KoZLXooKBXuLjFiBN8YHhnf7a4pgvoX7xN5y4avOVtRs8A0CAGi9ZhVbkdSSsXYCRRHfAGztswuOpXoSoY/K/EJzTGPwujRqRIVX+/if165crWRJdkQRzFtGAYhnUsjIDoSXYtvT3oY6sVhLtNXl4IK5P11YwKqLYb8TefPbv/AfhTk3XlI/fKe/rWDeLCRloEiJ7mwW8ZW3wNvZit46senRlBLCNN5N605k93+ZVIG4ubaVmKeCCsRq7fEZhe9+SPXLdDMrVotc9/sYRIwf4TkKqcLBcZvBjoNKkDJlqvadmzdvNx+mQKbDP/jEk8IfqOaWmXMU4cj9EXTY3ahZe2nzZKa4oORzOK+oKZNJenBncAeI84TObIqbA4mQs/eBS7+krKWlg7pzR4vkMBcy2Ubjtvgy28Fawuwk6bGmOOtk9CETtqSzZTTX9LWqTjCFVmp/w91nu/pvv4ocND7RRFghtGvWUkrMB+o62TxfHQd8yq/04NRO+vCZfdbQsBHCsf3mL4ytCh8rfeCFso2pkC9AU8UGH5OpcgTCkEzJu71QoC/U1vkK1XmhvfRYgA7UrARiEd1sBYELLXiAwbDlaQbCUspiYXxK8YUvs+ReizAjcllZK95V6mehCSK/FSd9YIiEFdSCYoHciLAADCWbvdWYOQTiv5NE3sDlIAx/aUAJghf0AJJft/TjqfElafIWuvEzvDdxGfJVJ9FWhG5lOUF1pf41RTVsSid3FqYdif6t+CwLesKjrGl/PBg4gHUTH7gEWg8IRjzZ84yb0MbGQeoseKtpDkUlKQ/DLVKmLLnG8gfPpyFSnpKcK8wB2GE2QmITrQP3RJV94DIk48/SvdolaoJQcX2KFoYQVWtvxgtQoCCdflgKMTttebXYdzNtYOmnXBtxSEA5lHSxmJB46wKO/8zfu4J2aElA6ymKzgYyeuxBOg3G/a0I3av68+2QXZDRvDfUm4AnzPOMm8fvjB9e8e73lfsFg3C4GkoJgqKxy1vQpjeBtp44r5BoKOnvqQWPG4guBVy6fPs7Tx5P1rAYNRO+vCZffxQ4aH2iiLCZf4hw0PtFEWEzJpf0OGh9ooilf8UOGh9ooiwmZNL+hw0PtEsWFL+hw0PtFEWEzJpf0OGh80MJmTS/ocND7RRFhMyaX9DegAP758grWolIwd8vRWKOJBYSs+lOOSlsjqVWtZTPEYJXjkSpG0hlkD0wsPyYkmLDY/lz1kiYyne6dR3LsM67h1BfbuayOslTPWPm8EDb/xiTOYGegP+r4J2G42J+Xu+apHlZJ7SIvRdes/JGfiagx4JTMAAOIAAw0RtCSC04Z7cF1cAWnDPgloYyhbo06KnlSk82Obu97CoGiEuGyEzE8sT8lA7COEFoDbN5IRwxVo6Z1UONVlEUI33p2CmHrCcmzn+mbcdzDgy2IVeeLeOSd0htSv2SzicJqSef2JG/Wc1Mi1g/91f1Xqr/3H//Q2jEoPmMbxyuRdzFyK1H86f+mR/HXfx7fvQ7AljggLmVL9nwSxaKvUHEmk02FS/ynrmIq5sus0ROrU1ROnZk0dHQvre+7k791pE0WLKKuxd1fXlccqr9LHUAiPwnNtl9ovCrTOYCo1kxhl37MSOIy+O1/dZdDaMjcfCFCj1dejYl697A++fyJYAgdbaveYfgXfxe1ITKh5CnLmpGU/f7ju4PvRA9t7ceBuWSTpVWipyZtN2ech9f3GriU5GkRQpP76zJN+nA6aY1dYfDhXyGWG/BLiYsaWbIMRV03jRc1VTvHL9FrsTNKxn9pK/pDpBqgI4IEYTe/Hj7fF9tYvGq+McUs0KVvW3YrkMRUSiKZasklnR/Ky4yChuzdmF6HBa50TvjuTyMhoGnZrrNsItFSsOAUAXaaEGY8YWtsMw7js2NG+6/Vztioy2ElSzPqhxObhhb5Oy6ppEbfBDlV6PveHqrM+oQUxQC76/voOIORsOY+H6rhe4yGvqbpPT6JOrOO3PjSb31nEjBFw4meddBFXULsZmoAcbCuh4faOrnKtmixfgWpSdTkZkoa+1zOI+qa5XGZIuy21n3nzfT8OJSfdqnsRjqdmgEwfh6K4MBrmILWqytfTAWh3jp3nLKvsS1VpJT6IkNcH8CsHUdbqarqjzDVZhbBL71aKMwFoSZccltAR8gpXYBpf6x1DOUb2DlTdvv63sudw3wer3dMb2PpRHAh67okyZD0jPMiSjIIHh5vAgAtH2J1FW4kIga4hk3UPmlzy1wZQlktvDqB3gqeNuZ75nLbpIirwDw+K0NcUEhXrn38vzNXEM0u9onwkSaROOnvEIg4HuEBk3YEmjs6AwMwxn0HixRsT1TaiWP3DA6I4v3qvUY1BbsrKRuVw/10Cd+aCBzCxXztH+mcQOrm/jIES521nzPv0esUWMQI+tdhxitnJ8WuTVXyzi4nnHQbPd/AIUf7HU/FviExsVqg0URXRdU+6F9Uo8vx+jG2Hy9Ua7vFH4sFaDIRP2CZ+OXTZuckQrqOBqAkCD2OySR8vZ1OvQ8UEwOhNTU/F8TsHLldPZ9yZVw59gUMnGOqRYJ4aML52E5pWIO9o4P34Zb6HpwMlL9nEn5nxzC2EDB87gr52FXLEydPVrF7skAfmMPsCQBwzAb715GBVak1EOdtIn3MCiAnMOI9qrizgYU3AjKkUnGPKJRUpRHqFtY4NDfwyjf/rbo9Ede9/ZUbU6BiXGiB885hge5zpRT28R3jwYqOMtMFzTZ7qD43V4d8OeI7uZw16KHnOiQwNu+YvKCILA76nbzWbNlxIRhDjhHCfopTnEDrlIKR+0n3s74LErdQ3U/5AwfG5ISKLZBpLytvjUq1E+WZm6FZlO6t3RjCqiqQvq2/+WvLrVy3ueUFeHpptFak8Qpr8FgCS8J+YJbvnI85LGLcCvz4rc+prQDSu9JCZZdmpKBjflQ9G0YbfzhOc9z2+AnAeHoY6ljmfTG/bTKGojaSibYIoCKEet7anEzZSJ2I3jx88f1aub/9Xw+Wcv1msAxd/TQnokAnB8ZwcLqO6+deX0j+8rhdOrl50wtN6nhg0EpniJHaJeas3KLp5+fKmwg5AJzm9mP2GehKFDkyIc5j4/n+buACAvOlcSHFXhbwJ1/9zuv/zIJKMPrNY2zQDEW62inBwgq0/OXMIBAnXjFiKuTIIaIgIMGVeb+1Zv7C7Ow0RpKu4n1t+o5jHUmUZfq9Ct+l8jZu8OwufxbpGgvzl/j5yOMzlCppLBtIUcwul0U0sQNrgEeS0JrciuVN3Smob7jYVL5jxYTigTTnOxcTTdbcq8XSRE9NY8a/6P77rg8LH3wWH2N9NS+UnzoKWax3hNNGP29G+tA8H9bo02QTok3ef4J1kijoS+5vk0AtTdzuDna8oNpH0JApA3UMvuxvQQ3qpsl8PgGqgT3T/GDHf9DC1Gk7WJLf/hIInen8qodSGXs/xOQ9ic/etrUkP3TEeaMKpj6gWO29jfsVgRJluM1e5ytwKgBscVHMGtwvS7UY8DTDfPd1QR4hO5tfQpwWN31YI9EEazoRcHJPuQQRUTEyp2baILFcgqsvIzgrnZMXJ7nz8CYtp0LWhgDLfKR0diSFLcGKVMCXzwpX6VvwXoW0jKxSqjZe7lUw0ItG2ZvrFLu0XCA1uVs+BbfEDcOx4xqh4r7nkqeUeCEYd51c2qoDS9fVpZ79toqQbloBpjzb0XWrM7uLyZNUR1bW7GvvwUwkg6N1NmobhByLOonO5hBmPvOQx2er+CRn4W84H/P8RQowiaKGZX8Tsm+Swue13wgc6/Og1cxfSY8eRa4uz3LSBShkah08xesfaCSyRYhV9AKa58LTxXEhWKfswAdg185dxgehGtXgEIGHFOrAhMpBw52mGscdh2Q/iiTgWEWMTVD29KPS8si62kDarfp90BreRC3g9J2kSW4tGoN/KLIGCKX4GajQH6MYzwxFSRHaGpWttBN9t/WZr/V9u5fypMZunM+oLJ7ns/WpOLTXW5OKsuPQ0ksr/VKMHJE1YOduo0yU38WdQUxZAqbRUqGSVKPTV9fH7oEeiNDbvGMP01ssYGhGS0l1Q7kKFgoZyYizWuJ9eZ5bGuVaBhtcRi4DJ/JPAxfblJRCse48QCvAcaYwAXjY+emvpiRuNA9qvKjJHMeuoAXm1GQWtKuabg4IA05AfxJf9hODuSDFmqxbbh/yBiZwA8trwEWBnjLCW6Pp4Lcbh6GGBIWIuwV22gNwWmVJ+Fe6a64Ar/NCE9C3JhUh3+lVmF+20Hxt/faW4oqGOjxzav2/IUVb/bkJGFEu2fv6qJD76+ZGADw8FvGLEcu7Vg1d99kEH67Yt9qEPfhGqHU3cavi1iWFJGprA83S0JvtQT/PM6YIcX6bY7b5rvZqzOdd6pmWDKvznG6PN5onw1uopeheT7tC8w3Y0JudvBPVdfAOo7tEXVrBXf0Vg/m6NTwIIqAdCNLzCyO+22+/epsS3OmrmPoROMIqZrhV0oqruhRI0xbZxbHbZ6wuZHdfttdApnwJ5GkjgDfJAFXc7uUf/9oR//s+H//2cBB/CNvgltdK6CaUjxiQDHvcIiH6ZQTxzpGLM9oO0d5fMIj+oS94sO5XEbQVe+YBuBAdiXDhd7lv5ia83E20XEtnntnWe6hFCHbHKn4iRrOloxjkzd6M+N8eD/xADo6xnrJUEmnVKDLLAAnEUUDiPTNlnz0T7OJrYfHYslrt9Fm9v36dUXqvhUJOOq1M8Dv4GuSiY+mhbfYhvk1ne78qkl+6198alOyOBJXvTDYV1LVS1+Erf5hhM6B01qNeph0HdYu/Y/feEdJ1htH3QiOM5W+ahtgwI/xH911kjf2sv1W+KvSIiA++vrTvMhcm93zNQPilxWV8T/Y7xJmmFY1Asg+ORulR5jSkhL3U77sKjN1nCGEXGj4FpMNQItKA1FdlhYO+ejzqyuVMxFDb0vgU8f38+c+BavQx8RRmOW9OGDm1PrbyA5Dm+G+YxSrRnEXaWSarksOW0WqcjOqwowZt5zqOH9g3IjbpDZM+zpMtXPYPB+gJKgIqJp42v1l6TYiJ+66ibadcOf0Cal+ZYV0W5ybrGTsCw4oGb8oAJi+aGx696Co8ozb44QTTmFDTdb4KapoFwHHQ+E3v+W9avCjenxf/w3n4UsXaUgothpaoAcs8TKBUwZwkZYpX9wSOoWPyAN6rEtcEYjhryjXeTnBBmx32k6+FOcxw42+qkClS0XvH+rYVgZk5ganjz/bPxXcjxYgHXEVeYiCmy1J8If60yKlMuXUYM5+k9QSycPnBpMQIm47Fzw52nd0/Nd+tNd55DE/VeCx4fIeijlmhtadPF/Lj2oqL/z/kkm51ZnO/L9X6RpZwOa/6T3uILptaxSqU5L1AEnZxqR2jMKgPSvq8LH+YHMHtEOO04z9fSxEBZlT1vj0Bb41eWArZbXY+IJgXaXyO6/ba7RHvPuD7JEi4apdtYQf+QkXvce7zb1Ql8onnlbPWcLmFvfJa7okmyhVlCL8RAzNPYO0gwA0xl4UlEvl9wAdhrK+tppsS9rCEHYlp8h92pSasYJiqSriRMdK9I0OXOEGCMzRHw5msevfUaWRYGgqYTu3ST8JLQcVmsZnexn/n0L6cRjJmA/GDu8FneX1tg3NAppGAk1xnCJiQVWVT7/sPdHM65auxJAEw9/Rfy59G92yUNbnnWkbIeej93+pEzX1FOG6rnsoT9V8yCMkl9kvAyMOlB12MEAAhhZEt1z/fpfQjYAfcV0kLrcWS8LeHp4X42uPsxbe90a83KUW3bY3jkzk6Mx3d2wjoQgSeecyGBFuX8w2W6aXQ0U+YnG+hXl+7VUKydWe8K7kBH6mrM9i6r1K+9h4GYbVaXshz2mFyYSeBus3ZRIyCkXk6nhV4ueACOILghIGl6vbCtpYtmR8U7QjJOUNLRjYq3b3pQSHMuC5F8BdrInVaLOGkaT++IB0ow+cY82BeZN/6GMqsJdxj5/B6Mj38jKMFOtrtcajoSi7bMKcMJXqwxyZW6DPaW/sLtFP0d2TjmNsN+Cfuxs517Ss2ROU//n4K4/XUOk7cPcbclioGqWQb+OmZqY+m8qnC9MQyR08Te5qJuLYyKMBmsNtIwJ7KHDC5wn4Z83FE/h/GZLkToJJYus2bAA8ItAMlV3i1PdrzFekWFVPmF2BFEsf8rWKENpdra2YOHNihWX/pgjPdIzGtN4Io7rOsaGgf0MFmrkDXm7WuVlhw9ozdGzSpQXBBsQVqIYhvONdc6cHz6i+/hNtTdz+FsZ50zX0WyFN/HcGlXsoB0LE2jSrC/2at98BngLcyL8KYZARv6QQEDr9B9X4VOUiN4RAJpHZiERKt6dZqUIT5Q3xfyLg/kxT+zTz6Q3bs2VnouDNvuSmw/ncyUcqJwnNLFbGkGIBZj7Ebxl8BUzKahvGfByGnvmd3jY/p1j1S6qKAVW2ZycKe2Ou0OFW0ZnmR61zqMzUdq3Qh2Y7vfeI6exwKBbxDfT61guHVdy8/q9LL1dralFa0g/LL+3MgNM05FTouqpS4GGccyqR623KCHRRqLE7TtOi+FBE/ZX1NFlrD4jpR3g9Yfo3wpMhUFkwEIvDVK1VOgYSx+03IMchT6pBuOF0rX1TdjIxzd0V53n1GRDqh6D5zEyHWMow05TLCY/1WubN916DnDtap8XmsvHLiQWAMuGpreaAUlT0OMyNQoN07XlzNIHjBMF+7zg8QEDpu2ApwflZ6TI6wrgaX+p2MAlx0zaQ7PomHVxf+SldNu96PmqwI9Wcr5i1lRpBwvTyzPMtHq/kF3AFAre0uSclyYdjqDiO+VQMleiKhcs+uSWH6yX3cq7zZAuazjzf3eEmhRCkU8e5x+oZmWiGyLls6I5Y/p4m/dryvWJ97Oi3D4NwWSLvGxoxTyizCMs+oEd4DNALQw4X9IqNpb6VRm2sghBA5Aj4VMXtWU8XvLZ9yfUPTUYMtivDIPqFFg/Xba8Dvxpkn0I2aEa4jsMoJNNKjWK2xa5ed6mGklQ2FXs4jmtTUeOIWYfvzrnplpfAYdLlqPDcV210lbPpUZbdzP+rF2ELkkkvn8ZFtFM9RiuSUMctLx31MyG5mC012rFx5xQMLrTBZt+OYsRTs2MyeXgt6oW9WqfAeMpFN4PQINesIPTrLh9XWwQLQNIrUnJtVwflqWqcKsW/yWyDRv1Pi90fz8GtnMWrwS6GkASD3GuQ8cQSJ8DQDElKRYBzU/96GQR8OODRHOvf2ErzTL5U9DZWP3dIukE9/l75tKHRR9lZ7cJbVBuxVhCnwBoH9X9prKK7JkrZmW0Jcr5+MjLlFRs4uauVw6DaafwhxAb1AIQ77Wxlqq8h5sjK2h51LGmWr+a8r5Du/N4GVtx1aUQuFSlPQlr2dAYb63GgNku4/8RhG2JwcrGBmvY5VnDIOKPfMoTVuNiFT09OEva4RPqQLUfxNzQF3iJk/mMVdQXSwflVMiPxEaXR512B9jIqQ5WBsYBVHcLiQkfDcfY3Eo2+TOMFf3M+WnbXnjkp7M3b3pL+OilXxXb/ByAi6MLUCkLSZADwsJYL6g592WH2TCJWQV2/WYI2XnY+bQir5J+cK3esmjilzd26sMi6uHS6w+dGX+y1DbiIiHA3rFYKPWUvsw1DIjj2YNcl1jc0EI7f7net7oAXjwdo5jxJdJFGr/ZscCQ26PVHdLlv2CaU4SES62avZmOC/JTL+4o7LzNkilzFWK3c0NxyhrLAjaflgoxMhXL5gAG1HS9kfLyc5SICQqed7u9qc6tbbJRlcEUyqF8YtB7EpRqCUZluOpZBwmgaLXVEUg97pYyEDPKBMvCauQ0/CZYEdVPvoC60HxMUHN0CWFQRtJGRMushAhbjDmLHYf+shQikrRCe3JkB4F8Z0z30br/cWFWJMdpKreAIt4vXpnE+cMs0iXXymjFRnOhUtii7EsmZxQw0bxdlTuW24SIFlHUf0xxXncpdEiKu5kJfqTN83ilHVsSyVeJrotAVHoKlFVlSTYtODyxchdpJ7ssl08ZNnPhCJ4lO9LDD7OJNwxnVyjpcenZiges0YiL6SJIjPu6Hfb8eOrpCzvomir74ua4RMO5VA8hkAoWS6tjkbKDxlaZZZQ+wR8CfEbD/I47l3hHhBx8Zewj9E2gF2vFTCgBxmQGwlAk6/Co35WornvquHt8SOyUvyAN6M4R1jMSxy7ziEYDLJkIlWFG2po2olyPrlk8p329syXrtH//obeIdCVWK2ttj4I0sRnnHMDkPXOSi3WjtCtvgc1fvEGQNVy1f2s+cTz6PHk0jWRqHEPbE8MDnJa5FWwUzA4UuD0fVrAg4Obkc294Lr6V7F2mbE5vt8AHNdMBMaLHf+h5qxZIRZ5ngwa0Yxi1O6/W1ycp1OHjq0xC+7neJGlp9woiL7WeaIadnB+ITOUwp+jaywJ7kwABNmVN4ENAzMXnmiIrha1D2zMquW9dnLcCEghvPRp8X4imfPZWpWq1Hj19aiua74vYyhK0i6dFTB16WUTv/diLtIuiDhIj7D2m50HMQZeRTC5rSLFzmAyQ+tpFL99ZC9k4FOuotmCfSrgeQSxdBkGn0YxMFVGRzooiIVkfEpQA8posers9VPMbEH4AHSVkmz2vwLLORYrVlxnYS19EOfHGPdB+oWDo/ENnRszlF06CM+M4K/ztS+6dTL7h6IpVQ1XR8JDMTWpL9fQb06CM+Le0ESdLePmMNQrbpjDzIVcKs6BdTPGCrhGg5/9jijpXli6F2aOI0p3Gy2vkAJZts/AYNf2Fa5vemgZcYF93DWOZkzJWxpoAvKlLJkjkl8VqInUzB9j4wq/wA+OcNcWyETjG9IeWsuwRmknMlntC8tPth/cW9i38TNci24o+hqFTxDHzhI3/A0mHTaqeJ4lWPJckxXpETaYF2M3qocB4l5h9fKiu+E5zw1YgPdZradNAGppSYOFVr9+l1TzFPmC8K1k4698Sb5xgiqnu6BiS7M/i8glbu09daRAdeXSjEhhkzEPFcQKgG4oqLeNjB3e3onSoSZIqMm+f9eanfjDTa6v6kQrsp6+wk7Ser1Vca9zsNGxUhsq909bLN9cWkJvosNnHI37RhbZo09s1L/XbdgxHVJ/+Ejv3bX56JyEcAT/tEeTRV4ZjvHzln06PraN+KgVqmuJAJAqWJHYfoWwAAA;" parent="1" vertex="1">
          <mxGeometry x="235" y="470" width="50" height="50" as="geometry" />
        </mxCell>
        <mxCell id="UwD6m1JZilUZtlp3aEf4-16" value="Eureka" style="rounded=1;whiteSpace=wrap;html=1;arcSize=13;" parent="1" vertex="1">
          <mxGeometry x="210" y="570" width="120" height="60" as="geometry" />
        </mxCell>
        <mxCell id="UwD6m1JZilUZtlp3aEf4-17" value="Config Server" style="rounded=1;whiteSpace=wrap;html=1;arcSize=15;" parent="1" vertex="1">
          <mxGeometry x="473.57" y="570" width="120" height="60" as="geometry" />
        </mxCell>
        <mxCell id="UwD6m1JZilUZtlp3aEf4-19" value="" style="sketch=0;pointerEvents=1;shadow=0;dashed=0;html=1;strokeColor=none;fillColor=#505050;labelPosition=center;verticalLabelPosition=bottom;verticalAlign=top;outlineConnect=0;align=center;shape=mxgraph.office.security.lock_protected;" parent="1" vertex="1">
          <mxGeometry x="317.14" y="550" width="12.86" height="17" as="geometry" />
        </mxCell>
        <mxCell id="UwD6m1JZilUZtlp3aEf4-20" value="" style="sketch=0;pointerEvents=1;shadow=0;dashed=0;html=1;strokeColor=none;fillColor=#505050;labelPosition=center;verticalLabelPosition=bottom;verticalAlign=top;outlineConnect=0;align=center;shape=mxgraph.office.security.lock_protected;" parent="1" vertex="1">
          <mxGeometry x="580.71" y="550" width="12.86" height="17" as="geometry" />
        </mxCell>
        <mxCell id="UwD6m1JZilUZtlp3aEf4-21" value="Currency Service" style="rounded=1;whiteSpace=wrap;html=1;" parent="1" vertex="1">
          <mxGeometry x="420" y="170" width="120" height="60" as="geometry" />
        </mxCell>
        <mxCell id="UwD6m1JZilUZtlp3aEf4-22" value="" style="image;aspect=fixed;html=1;points=[];align=center;fontSize=12;image=img/lib/azure2/databases/Azure_Database_PostgreSQL_Server.svg;" parent="1" vertex="1">
          <mxGeometry x="555.1800000000001" y="140" width="22.5" height="30" as="geometry" />
        </mxCell>
        <mxCell id="UwD6m1JZilUZtlp3aEf4-23" value="" style="sketch=0;pointerEvents=1;shadow=0;dashed=0;html=1;strokeColor=none;fillColor=#505050;labelPosition=center;verticalLabelPosition=bottom;verticalAlign=top;outlineConnect=0;align=center;shape=mxgraph.office.security.lock_protected;" parent="1" vertex="1">
          <mxGeometry x="527.14" y="146.5" width="12.86" height="17" as="geometry" />
        </mxCell>
        <mxCell id="UwD6m1JZilUZtlp3aEf4-24" value="Paypal Service" style="rounded=1;whiteSpace=wrap;html=1;" parent="1" vertex="1">
          <mxGeometry x="420" y="450" width="120" height="60" as="geometry" />
        </mxCell>
        <mxCell id="UwD6m1JZilUZtlp3aEf4-28" value="User Service" style="rounded=1;whiteSpace=wrap;html=1;" parent="1" vertex="1">
          <mxGeometry x="632.86" y="170" width="120" height="60" as="geometry" />
        </mxCell>
        <mxCell id="UwD6m1JZilUZtlp3aEf4-31" value="" style="endArrow=classic;html=1;rounded=0;exitX=1;exitY=0.5;exitDx=0;exitDy=0;fixDash=0;flowAnimation=1;" parent="1" source="UwD6m1JZilUZtlp3aEf4-3" target="UwD6m1JZilUZtlp3aEf4-35" edge="1">
          <mxGeometry width="50" height="50" relative="1" as="geometry">
            <mxPoint x="490" y="350" as="sourcePoint" />
            <mxPoint x="630" y="310" as="targetPoint" />
            <Array as="points">
              <mxPoint x="430" y="360" />
            </Array>
          </mxGeometry>
        </mxCell>
        <mxCell id="UwD6m1JZilUZtlp3aEf4-59" value="Komunikacja synchroniczna" style="edgeLabel;html=1;align=center;verticalAlign=middle;resizable=0;points=[];" parent="UwD6m1JZilUZtlp3aEf4-31" vertex="1" connectable="0">
          <mxGeometry x="-0.1438" y="1" relative="1" as="geometry">
            <mxPoint as="offset" />
          </mxGeometry>
        </mxCell>
        <mxCell id="UwD6m1JZilUZtlp3aEf4-35" value="Foreign Currency Account Service" style="rounded=1;whiteSpace=wrap;html=1;" parent="1" vertex="1">
          <mxGeometry x="419.99999999999994" y="360" width="120" height="60" as="geometry" />
        </mxCell>
        <mxCell id="UwD6m1JZilUZtlp3aEf4-37" value="Transaction Service" style="rounded=1;whiteSpace=wrap;html=1;" parent="1" vertex="1">
          <mxGeometry x="632.8599999999999" y="360" width="120" height="60" as="geometry" />
        </mxCell>
        <mxCell id="UwD6m1JZilUZtlp3aEf4-38" value="" style="endArrow=classic;html=1;rounded=0;fixDash=0;flowAnimation=1;exitX=1;exitY=0.5;exitDx=0;exitDy=0;" parent="1" source="UwD6m1JZilUZtlp3aEf4-3" target="UwD6m1JZilUZtlp3aEf4-37" edge="1">
          <mxGeometry width="50" height="50" relative="1" as="geometry">
            <mxPoint x="790" y="360" as="sourcePoint" />
            <mxPoint x="840" y="310" as="targetPoint" />
          </mxGeometry>
        </mxCell>
        <mxCell id="UwD6m1JZilUZtlp3aEf4-39" value="" style="image;aspect=fixed;html=1;points=[];align=center;fontSize=12;image=img/lib/azure2/databases/Azure_Database_PostgreSQL_Server.svg;" parent="1" vertex="1">
          <mxGeometry x="768.0400000000001" y="140" width="22.5" height="30" as="geometry" />
        </mxCell>
        <mxCell id="UwD6m1JZilUZtlp3aEf4-40" value="" style="sketch=0;pointerEvents=1;shadow=0;dashed=0;html=1;strokeColor=none;fillColor=#505050;labelPosition=center;verticalLabelPosition=bottom;verticalAlign=top;outlineConnect=0;align=center;shape=mxgraph.office.security.lock_protected;" parent="1" vertex="1">
          <mxGeometry x="740" y="146.5" width="12.86" height="17" as="geometry" />
        </mxCell>
        <mxCell id="UwD6m1JZilUZtlp3aEf4-45" value="" style="shape=image;verticalLabelPosition=bottom;labelBackgroundColor=default;verticalAlign=top;aspect=fixed;imageAspect=0;image=data:image/png,iVBORw0KGgoAAAANSUhEUgAAAgAAAAIACAYAAAD0eNT6AAAABHNCSVQICAgIfAhkiAAAAAlwSFlzAAAN1wAADdcBQiibeAAAABl0RVh0U29mdHdhcmUAd3d3Lmlua3NjYXBlLm9yZ5vuPBoAAC19SURBVHja7d1pgB1lmTbgAhERlXEcRmUNO6goKKKICCqKCyLKiOnskBCydPbOTvaEAILoqAgoKoqI9JJ9J3tIQhI/dVRccVBxYQRlJyxJzleVToBIlu5On9NvvXX9uP7kZ/qt577POfVUJaVSKaGYkrdctW/q3akxqbrUitSvU/9MlSBym1OPp/6y7dz/KLUsNSt1e+rm1HWp8akhqYtSb0u9yvwgigzwn1DI4D9v24B7SAhAs21K3Zeam7o+dXnqnNSbzRcUAEL9tP9f2z7lGOJQHo+m7tlWDC5IHWT+oADQluF/ZuqXhjO0ybcF61JXbfvm7UAzCQWASgT/fqnJ24aQYQxt79nUytTEbT8b7G9WoQDQ2uHfLrXBwIXgfzL4ZuoscwsFgNYI/yNT9xuukCu/T01IHWuOoQDQkvA/YtsgMVAhv1aleqb+zVxDAaAp4X/wtvUkAxTisDF1Z+pjZhwKALsrADMMTIjWT1IXZyu95h0KAC8N/54GJBRC9tTCbtmWj9mHAiD8j0s9aTBCoWQ3+vbxaGIUgGIXgFrDEArrr6ma1GvMQxSAYoX/MR70A6Qe3lYE/DSAAlCQAnCDwQe8xC9SZ5uPKABxh/8bUk8beMBOfC/1JrMSBSDOAtDRkAP28KjhfqlXmJkoAHEVgG8ZcEAT/Dj1XnMTBSCeAvBHgw1ooi2pb2Q/HZqfKAD53/031IDm+nPqA+Yo/hPyWwA6GGRAC2Wrw6NS+5inCgD5KwBTDDFgL83PXiJmpioA5KsATDe8gFb6SeAsc1UBID8F4LcGF9BKnk+N9JOAAkD44X9AarOhBbSyeX4SUAAIuwCcalABZfJA6h1mrQJAmAWgkyEFlPkJgueYtwoA4RWAqwwooMyeSV1k5ioAhFUAZhlOQAVk9xr1NncVAMIpAL83mIAKmmD2KgC0ffgfaAMAaAM3eaugAkDbFoDTDCKgjUzL1pDNYgWAtikAXQ0hoA0tT73aPFYAqHwBuMYAAtrY7NR+ZrICQGULwBzDBwjAt81kBYDKFoD7DR4gEFebywoAlQn/16a2GDpAQAabzwoA5S8Apxs2QGCyDyWdzGgFgPIWgEsMGyBAz6U+Zk4rAJSvAFxr0ACBejL1HrNaAaA8BWCeIQME7KHUkea1AkDrF4A/GTBA4NZ4RoACQOuG/+sMFiAnvmBuKwC0XgE4w1ABcrQZcL7ZrQDQOgWgh6EC5MjDqcPNbwWAvS8A1xsoQM7c7X4ABYC9LwALDRMgh64ywxUA9q4A/NkgAXJ6P8DHzXEFgJaF/78ZIkDOnw9wqHmuAND8AnCmAQLkXIN5rgDQ/ALQ0/AAIvAJM10BoHkF4MsGBxCB+1KvMtcVAJpeAO4yOIBIjDfXFQCaXgD+amgAkdiYOsZsVwDYc/i/wcAAIjPXfFcA2HMB+IBhAUToM2a8AsDuC0BvgwKI0B9TB5rzCgC7LgBfNSgAjwlGASheAVhqSACReiZ1iFmvALDzAvB/hgQQsS+a9QoALw//gw0HIHJPZrPOzFcA2LEAnGM4AAVwpZmvALBjAehrMAAF8Fjq9ea+AsCLBeAGgwEoiLHmvgLAiwVguaEAFMTDqdea/QoAjQXgIUMBKJChZr8C4A/zlqveaBgABfO31AEyQAEoegH4kGEAFFBfGaAAFL0A9DMIgAL6sQxQAIpeAG4yCICCOlkOKABFLgCrDAGgoK6RAwpAkQvAPw0BoKD+nNpXFigARQz/QwwAoOA+Ig8UgCIWgI+4+IGC+548UACKWAAGuviBgsveEvgamaAAFK0AfMPFD3BVZ5mgABStAKx24QNctUgmKABFKwCPuvABrtqcOlQuKABFCf/DXPQAL+guGxSAohSA81zwAC/4vmxQAIpSAAa74AFe8BfZoAAUpQDc4oIH2MGJ8kEBKEIBWOtiB9hBH/mgABShADzuYgfYQa18UABiD/8jXegAL/P31D5yQgGIuQB8woUOsFNvlxMKQMwFYKiLHGCnBsoJBSDmAvAdFznATs2QEwpAzAVgvYscYKf+KScUgFjDf5+k8fWXLnSAnXuzvFAAYiwAR7m4AXbrHHmhAMRYAM53cQPsVi95oQDEWACGu7gBdut6eaEAxFgAvuviBtitufJCAYixAPzIxQ2wW/fJCwUgtvDfN/WUixtgtzalXiU3FICYCsAxLmyAJnmb3FAAYioAn3ZRAzTJRXJDAYipAIxyUQM0ySi5oQDEVAC+76IGaJJvyQ0FIKYC8BMXNUCTNMgNBSCmDYCNLmqAJlkoOxSAWArA8S5ogCZbIzsUgFgKwGdc0ABN9nPZoQDEUgCucEEDNNkfZIcCEEsB+IELGqDJHpYdCkAsBeB/XNAATfas7FAAYgj/V6SecUEDNMv+MkQByHsBONGFDNBsb5AhCkDeC8BFLmSAZmsnQxSAvBeAsS5kgGbzRkAFIPcF4E4XMkCzvVWGKAB5LwC/cCEDNNuxMkQByHP475d6zoUM0GyHyREFIM8F4K0uYnbrpKml5PiJpeS4caXkmCtKydGjSkm74aXkyKGl5Iga2LnsfLQb1nhWjhrZeG6OHt14ho4dm56pCaXkxMl5vz4OliMKQJ4LwMVCjpc5YWLjwD58cCl5c3WqL5TPof0bz1pWGrKycOyY9AxOysO18jo5ogDkuQBMEHhslX0ayz6tHdJfIBGGQ9LyefigxnMZZil4pRxRAPJcAOqEX9E/7adD9chhwob8lILsJ4bsp4S2/QlhiwxRAPJeAH4pBAsc/NkgFSrk2WEDS8lRI0rJcePTcz21ktfQRhmiAOQ5/PdPPS8MCyj79HSI3/aJ8NuB7Nus48dX4jp6RI4oAHkuACcLw6L9zj8l/dQ/RFBQjBsLsxsKy3ffwINyRAHIcwFoLxQLJPuK1A1+FFF2I2H2rddJrfoTwf1yRAHIcwGYJBgLItu7FgQU/ieCfo3fCmTfhO39dbVejigAeS4ADcJR+EPxVDc+pGjvfh6YJUcUgDwXgF8LSOEPhZZtwmRPumz+9fUNOaIA5DX8X5XaJCRj/s1/nOEOTZU9hbB5zxWYJEsUgLwWgFOEZOR3+2e/dxrs0LyfBrJnCpx0ZVOus76yRAHIawHoKCgjZtUP9u5mwezFRbt/sNBFskQByGsBuFJQxvqQn9EGOLTKswQG7O6hQmfKEgUgrwVghrCM9PG+nvAHrSt7GdHLfxY4RpYoAHktAL8TmL76B5rxZMHjdvg24EBZogDkMfxfndosMCP89G9QQ5m3BYZl3wY8IUsUgLwWgHcKzAhla0wGNFSgBAzZnHSZZgtAAchlAegsMGNb+5tsKEOlnHRFKZm8oZT0mP1DmaIA5K0AXCU0I5PdpGQwQ2Wc8YVScuWPGlUv/E1SVXuQbFEA8lIAZgnNyHjoD1TOBd96sQBkhi5/IulQ9075ogDkoQD8XmhGJHuOuaEMldN7zo4FIDN2TXZfQC8ZowCEHP4HprYIzogcPcpAhoo9JbC6lExe//ICkMn+vces22SNAhBqAThNaEbm8MGGMlRuA2Dn4f9S1QvuTapqXytzFIDQCkA3oRmRk6Y2vsDEYIbKeOvYPReATM2yx9IScJjcUQBCKgBfEJwx/f4/3kCGSnr/F5tWALbeHLjs8bQEHCJ7FIBQCsBcwRnT7/9e/AMVddGtTS8AL34T8Eb5owCEUAD+IDhj2v8fZiBDJfVf0LwCsLUELH0kLQEHyyAFoC3D/7U2AGK7AXCQgQwV2wDo1/zw327I0n+mJeANskgBaKsC8B6hGdsDgNwACBVzVE3LC8DWErDkH2kJeL08UgDaogBcKjRjev7/FAMZKunkCXtXADKDlzzk0cEKQFsUgOsEZ0SOswEAFXX2l/a+AGQGLf675wQoAJUuAPMFpw0AoIUuvq11CkBm4OK/Ju1r95VNCkClCsCfBGdEjrQBABU1fHnrFYDM5XOXySYFoBLhf5DQtAEAtFC7Ia0b/pkpG0pJt+ljFQAhXe4CcIbQtAEAtNBpU1u/AGTG37Ml6Vh/tgJAOQtAD6EZ0wbAZAMZ8vr7/78avuLpIq8HCunyF4DrBWdMGwDjDGSo5CuAx60tXwHI9Fv4OwWAchWARYLTBgDQAscML2/4b9dj1m0KAOUoAH8RnDYAgBY487rKFIDJ60tJ52ndFABaM/xfLzQjc5gNAKiYbnWVKQCZMas3JR3qTlAAaK0C8H6haQMAaOELgLJP5pUqANseF6wA0FoF4HKhaQMAaIETR1c2/Le7ZOaXFQBaowD8t+C0AQC0wIe+0jYFYMyaTUlV7ZsUAPa2ACwWnDFtAIwylKFS+sxtmwKQ6T1/gwLA3haAvwnOmDYAhhrKUAmHDWi78N/+qOBODRcqALQ0/N8gNGPbABhoMEMlnDy+bQtApmbZowoALS0AHxCaNgCAFvjkN9q+AGQunXmjAkBLCkBvoWkDAGiBoUvDKABj12xOquqOUABobgH4quC0AQA007Ejwgj/7frM/6kCQHMLwFLBaQMAaKZP3BxWAchuCOzccLECQHMKwP8JThsAQDOf/jd2dVgFIDNkyT8UAJoa/v8pNG0AADm8+39XOjd0UABoSgH4oNCMzJttAEDZVd0RbgHov+h+BYCmFIBqoRmREyYZzBD7w3+aci9Ax/ozFAD2VAC+LjgjcqwNACi791wTdgFo3Aj4kQLAngrACsFpAwBohr5zwy8AE9dtiem5AAK7PAXgYcFpAwBooqOGhh/+2/WcM0cBYFfh/yahaQMAaIZzv5afAjBm9aakfe2BCgA7KwAfFpoxmWoDAMq6+59eX6NW5qcANL4j4GYFgJ0VgP5C0wYA0EQnXZGv8M+MWLFRAWBnBeAmwRnTBsBYAxrK6aJb81cAMl2nj1AA+NcCsEpwRuSokQY0lMuh/UvJpHX5LAD9Fv5OAeBfC8A/BacNAKAJTpuaz/DPjF+7JWlfe4ACwPbwP0Ro2gAAmnjz35DF+S0AjT8D1CgAbC8AHxGasW0AGNRQFu+YmO/wz/Rd8DMFgO0FYJDQtAEANEG/+fkvAI3PBNhXASArAN8UnDYAgD14y9j8h/92XaZ1VwDICsAawWkDANiDnjPjKQC9561VAMgKwKOCMyJH1BjU0NpOGBVP+GdGrXpOARD+hwvN2DYABhjW0Nq61MVVADKdGi5UAIpdAD4mNG0AALtxzPD4wj9z+dwlCkCxC8AQoWkDANiNz98eZwEYvuIpBaDYBeBbgtMGALAL7WriDP/MlA2lpKr2jQpAcQvAPYLTBgCwCxd+O94C0LgOeJkCUNwC8LjgtAEA7MQRg+MO/0yPWd9XAIoZ/kcKzcgcagMAWs3Hb4q/APRdcK8CUMwC8AmhGZGTbABAqzl8YH5f+dscQ5c9rgAUswAMFZwxbQBMNLShtXz21vjDPzMxLTnta/dTAIpXAL4jOGPaABhjaENrOG5kMcL/hQcC1X9UASheAdggOG0AAC9VXUr6zC1WAbhkxvUKQLHCf5/Uk4LTBgDwEu+eWqzwz/Sad7cCUKwCcLTQtAEAvET2Ho0xq4tXAAYtflABKFYB+JTQtAEAvMQnv1G88M+MWb1JAShWARghOG0AANscPayY4b9dVe1hCkBxCsD3BKcNAGCbHtOLXQA61p+lABSnAPw/wRnTBsAIAxxa6pRJxQ7/TOeG9gpAMcJ/39TTgjOmDYAhhji0xKH9S8nI5QpA12mDFIBiFIBjhaYNACD14a8K/8ZnAVylABSjAHxaaNoAgMJrN6SUTF4v/DPdZ92iABSjAIwSnBE53gYAtEjnOwX/dpfNnq4AFKMAfF9wRuQYGwDQbO+cIvRf6vK5yxWAYhSAnwhOGwBQWEcOLiXj1wr9l+oz/ycKQPzh/4rURsFpAwAK6ZDqUtJrtsD/V/0W/k4BiL8AnCA0Y9sA6G+og7v+987AxX9VAOIvAJ8VmjFtAFxpoENTnTBK0O9KzdJHFID4C8AYwWkDAAr5pr/hHvizS8NXPKUAxF8A7hCcNgCgcD5/u5Df7TcAyx5TAOIvAD8TnBFpZwMA9ui0KwX8ngxe8ncFIO7w3y/1rOC0AQCFetrfhHsE/J4MuOsBBSDuAnCS0LQBAIVa+es9R7g3RfXC3ygAcReA/xKaNgCgMD5yg2D3ICC2FYBxgjOmDYAJBjzsyomjhXpz9Jq7SgGIuwDcKThj2gC4wpCHnTl8YCkZaeWvWXrOmasAxF0AfiE4Y9oAGG7Qw8t+9+/nUb8t0WP2DxWAeMP/lannBGdEDrcBADuqLiXt7fu3yKUzb1IA4i0AbxWaNgAgaufdKMhb6pIZVykA8RaAi4WmDQCI1ulXC/G90XX6UAUg3gIwUXDaAIAovWWMAN9bXaZ1VwDiLQD1gtMGAETn6KGlZPxaAb63OjVcoADEWwB+JThtAEBc636DvOGvtXSsf68CEGf47596XnDGtAEw2PCn2A7tV0r6zhXcraWqrp0CEGcBeLvQjEy26ywEKPIz/jv+UGi3lsnrS0n72v0UgDgLQJXQtAEA0fjkN4R2axq58plcZZpgb1YBmCw4bQBAFN53rcBu/VcB/1kBiLcATBOcNgAg906ZJKzL8iKgeasVgHgLwG8Epw0AyLV3XSmoPQZYAWhm+L8qtUlw2gCA3Hr3VCFdTp2nXaoAxFkAThGaNgAgt95zjYAu+wpg7WEKQJwFoKPQjMiJUwQCxXHmdcK53Mau2Zy7XBPuTS4AVwrOmDYAxgsFiuGs64VzJdQsfUQBiLcAzBCcMW0AjBYMxO+cLwvmSqlecK8CEG8BuE9w2gCA3PjwV4VyJV02e7oCEGf4vzq1WXDaAIBc+OgNArnSuk0fqwDEWQDeJTRtAEAufPwmYdw2bwE8WwGIswB0EZo2AMCz/dmpSfl6CZAC0LwCcLXgjMhxNgCI7a1+/UrJ524TxG1lxMqNucw2Ad+kAjBbcEbkaBsAROSIQaWk71wh3Jb6L7pfAYi3APyv4IxpA2CY0CAOx48qJaNXCeC21mPWbQpAnOH/mtQWwRnTBsAgwUH+nZ6e5cnrhW8YNwCeqwDEWQDeLTRtAEA4v/dXu9kvJGNWb8ptvgn5PRaAbkLTBgAE4bABpeTSaUI3JP0W3qcAxFsAviA4bQBAmzt6WCkZulTghqb7rFsUgHgLwFzBaQMA2tTbJ5SSieuEbZi//5+hAMRbAP4gOCNypA0AcuZDXxGyoRp993O5zjchv9vwf50NABsA0CYO7V9Kqu4QskG/AXDhrxWAeAvAe4VmbBsA1YKF8J0wyu/9eXDpzK8pAPEWgO5CM6YNgMmChfAf6etlPvnRoe5UBSDeAvBFwRnTBsA4AUO4jhtZSgbfJVTzYtSqZ3OfcYJ+twVggeC0AQBl/9T/kRsEat70XfBzBSDuAvCA4LQBAGVzzPBSMmChMM2jS2ZcpwDEG/4HCc3IHGYDgIAe5/tB6305//3/BAUg3gLwPqFpAwBa/4l+Q0tJ33kCNM9qlj0WRc4J+10WgMuEpg0AaNVP/R/4kjf4ef2vApCDAvAlwWkDAFrtOf69ZgvOGGQFrqqunQIQdwFYJDhj2gAYJYSovCMGlZILvyM0YzLgrgeiyTlhv8sC8BfBGdMGwFBhRGUf45s9w3+SF/hEp9uMiQpA3OH/70LTBgC06Hf+09PzNnqVoIzRuLWbk/a1BygAcReA9wtNGwDQLG8bV0oGLRKSMesz/ydRZZ3A32kBuFxo2gCAJjl2eCnpPl04FkHnho4KQPwF4CuC0wYA7P4Gv8Gl5KLvCsWiGLnymeiyTuDvtAAsEZw2AGCXN/id+zX7/EXTc848BaAYBeBBwWkDAHZw+KDGx/eOWS0Mi2bKhlLSse40BSD+8P8PoRnbBsBA4cXevbDns7f6xF9kQ5b8I8q8E/ovKwBnC83IvNkGAC1Y5zt5fCnp4eY+UpfOvEkBKEYB6CM0I3KCDQCa+fv+e68pJUOXCj0aTVxXSqpq36gAFKMAfE1w2gCgYI4cXErO+3opGb9W4LGjvgt+Hm3eCf2XFYBlgtMGAAVx/MhS0v52Icdubv6rP1MBKE4B+LvgtAFAxA4bUEpOm1pK+swVcOxev4W/izrvhP4O4f+fQtMGAJGG/ruuLCVd64QaTf/036n+PAWgOAXgg0LTBgARhf47J5eSzncKM1ry2t8/RZ95gn+HAlAtNGPaAJgkBIt4F/8p6d+94x329tnb5/5/TgEoVgH4uuCMyLFjBWJRQv8dE0tJ1Q+EPq1j0OIHC5F5gn+HArBCcEbkqJHCMVbthpSSd04pJZ+/XejT+rpM664AFK8APCw4bQAQ4FP5ssfxvueaUnLxbaXkilUCijI+9nfpPwqTeYL/hfB/s9C0AUAIX+n3KyUnjColZ11fSjrXNj6JTTBRKV2nD1YAilcAzhWaMZkqSPN0t/5bxpaSD3+1lPScKYBoO0OXPV6o3BP+LxSAAULTBgBl/Br/iMGNn+yzffwPfaXx6/xBi4QO4eg2fbwCUMwCcLPgtAHA3oR8v1Jy5JBScuIVpeTdU0vJR25ovDNfyJMHw1c8XbjcE/4vFIC7BacNACFe3bhWd/jAxhfkHDU0LVMj0lAfXUreNq5xxz4L9/ddW0rO/lIp+diNpaTTnaWkZokAIeef/mdMVQCKWwAeEZwROaJm74IwC8DsffBnXtf4SfbCbzcGXfZ++Jj0nlNKBt9VSkavtE5HcQ1e8lAhc0/4bw3/Q4VmbBsAA5of+tmn3OwT7YCFBiIUxaT12Rv/PqQAFLcAfFRoFnQDIPvdOrspTehDMV0+d1lhs08B2FoABgnNom0AVJeS068uJWNWG4BQVKNXPZdU1R6kABS7AHxTcBZoA+CoGvvmQPbQn9GFzj4FYGsBWCM4C7IB8P4vutkNyF73+0Dhs08B2FoAHhOcsW8AVJeS879p6AHZ46W3JB3rT1cAhP/hQjMyhw54+Y1+7W839IBGPefM9uFXAcgKwMeEZkROmvryB9t0rTPwgEYjVm5M2tceoAAoAFkBqBGcMW0ATNyxAHziZgMPeFGXadXCXwHYXgC+LTgj3QDIHllr4AHb9Vt4n+BXAF5aANYJzgg3AI4Z7m5/4EXj79mSdKg7SfArANvDf5/UE4Izwg0Ae/7AS10682tCXwF4aQFoJzQj3AA4dbJhB7yoesGvBL4C8K8F4JNCM7INgOxVtiNXGHjAi3f9V9W+QeArAP9aAIYJzsg2ALLn+xt6wPYH/nSq/7iwVwB2VgBuFZwxbQCMKSV95xl6wPbf/W8U9ArArgrABsEZkdOuMfCAbb/7L/yNkFcAdrcB8KTgjEgnT/wD/O6vAOy5ABwtNCMz+m6DD/zun34YaDhfwCsAuysAnxKaEXn7Fww+IPvd/2bhrgDsqQCMEJwROevrBh941O9vBbsC0JQC8D3BGZFPfdfwgyIbufKZpKr2YMGuADSlAPxYcEakc4MBCEU1aevv/hcIdQWgKeG/b+ppwRmR6oWGIBTRlA2lpNv0CQJdAWhqAThOaEbmChsAUEjdZ35TmCsAzSkAFwrNiLzjWkMQiqjnnDmCXAFobgEYLTgj8gEbAFA4feb/SIgrAC0pALcLzohc8D3DEIqk/6L/TdrX7ivEFYCWFICfCk4bAEAODV7yUBr+BwpwBaAl4f+K1DOCMyL9bABAIQxb/kRSVftG4a0AtLQAnCA0Y9sAWG0wQuxGrXo26VB3vOBWAPamAHxWaEbkFBsAEL0xqzclHevPENoKwN4WgDGCMyJn32g4QszG37Ml6dRwocBWAFqjANwhOCPy6dsMSIj5Eb9dpvUW1gpAaxWAnwnOiHSZZkhClJ/8125Jr+/LBLUC0Frhv1/qWcEZkf6LDEqI8Tf/Tg3nC2kFoDULwFuEZmTGrDEsIbbX+nasP11AKwCtXQA+JzRj2gC4zrCEmAxd/kTSoe5Y4awAlKMAjBecETnnJgMT4nnC39+TqtqDBbMCUK4CUCs4I3KhDQCIQr9Fv0/a1x4glBWAchaAewVnRLpONzghgrf6ebGPAlDu8H9l6jnBGZEBNgAg13rOmSuIFYBKFIC3Cc3IjLUBALk0ZUMp6T7rFiGsAFSqAHxeaEbkVBsAkEsT121Jus2YKIAVgEoWgImCMyIftAEAuTN8xdNJx/pzha8CUOkCUC84Y9oA+L5hCnnSd8HPk6ragwSvAtAWBeBXgjMi3WwAQC5MuGdLcsmM6wSuAtBW4b9/6nnBGdMGwF0GK4Ru2PInk4715whbBaAtC8DbhWZkxq01XCHs/f6fJlW1rxW0CkBbF4AqoRmRd37RcIWwv/K/SsAqAKEUgCmCMyIfutmQhTC/8n8i6Vh/lnBVAEIqANMFZ0Q+YwMAAn2k74GCVQEIrQD8VnBG5JIZhi2EYszqTUm36RMEqgIQYvgfkNokOCMycLGhC21t8oZS0nveuqSq9o3CVAEItQCcKjQjM94GALSpmqWPJJ0aLhCiCkDoBaCT0IzIu643fKGtjF2zObl05o3CUwHISwGYKjgj8mEbANAmb+/ru+BnSVXdEYJTAchTAZgpOCPy2dsNY6j00/w6N3QUmApAHgvAfYIzIpfONJChEsav3ZL0mPX9pH3tfsJSAchj+L86tVlwRmSQDQAou34Lf5t0qDtBSCoAeS4A7xKakZlwj+EM5TLwrr8knRs6C0cFIIYC0EVoRuQ0GwBQlhv8+i/6Q9Kp4TNCUQGIqQBcLThj2gD4hmENrfkgn+yr/k71HxWGCkCMBWC24IzIRT8wtGGvg399ttL386Rj/ZlCUAGIuQDcLzhtAACpiesaX9jToe5U4UfUBSANjNektgjOiAxeYohDc024Z0vSa95qd/VTpAJwutC0AQCFNfru55KecxZ5eh9FLACXCM2IvPtLBjo05dN+9YJfJl2m9RVwFLkAXCs4I3LuNw132NXd/AMX/y25ZMa1SVXtQYINBeAtV80TnBH5LxsA8LJn9PeYfaff9lEAXl4A/ig4I9J9loEPV9z9fNJr7qqkU/15AgwFYOfh/zqhGZkhSw1/imnM6k1J9YJfJV2m9U/a1+4ruFAAdl8A3is0I5PtMAsDimDc2s3JgLv+tPVNfJ7ShwLQ7ALQXWhG5PQvCwXivnM/u4nvstkNSaeGi3zKRwHYuwLwRcEZkY/YACCyJ/INXvJQ0nPO3KRzQ5c08PcTRigArVcAFgjOiHzuDqFBfj/dZ3fr91v0+zTwF2b7+WngHyh8UADKVwAeEJwR6TFbkBD263RHrXouGbT4waT3/A1J91nf23rDXoe6k4UMCkBlw//fhGZkamwA0IZvzhu/dktyxernkxErNyY1yx5Nqhf+ZuvX991mTE061X/SJ3oUgHAKwJlCMyJvvdoGQNE/XY9dszkZvuLprb+b91t4X9Jn/k/2wo+TXvPWbP06vsfs2vTT+i1bn6DXdfqo9FN7z6RTw2eSjvVnpZ/ej0+qal8rJFAA8lUAegpOGwDkNOyHLn8i6TV3xdbfyjvUvdUNcqAANKcAfFlwRuSjtwjGmGWf7rOX12x9jn1dO0MZFIC9KQB3CU4bAARu1Kpnk+6zbvU1OygArVkA/io4I3KZDYCoDF/xVPpp/3pf7YMC0Nrh/+9CMzJDlwnNWD7xd50+2tAFBaBcBeAsoRnZBsCk9cIz76oX3JtU1R5s4IICUM4C0EtwRuQ9/y088/5Sm24zphi0oABUogB8RXBG5LxvCdG8ynb2O9S9w5AFBaBSBWCJ4IzIxT8UpHnUd8G93mgHCkClC8CDgjMiPecI0/z93v9L4Q8KQKXD/z+EZmwbAMsFaq7Cf+GvhT8oAG1RAM4WmjYAaLPw/43wBwWgrQpAH8EZkfd+RajmxYC7HhD+oAC0ZQG4QXBG5GM2AHJhzOpNnuEPCkBbF4DlgjMin79TuOZB1+k1BikoAG1dAB4SnBG53AZA8PrM/3+GKCgAbR3+bxSakRlmAyBoI1ZuTKpqDzJEQQFo6wLwIaEZ2QbA5A1CNmSdGzoYoKAAhFAA+gnOiJxhAyBoAxf/zfAEBSCUAnCj4IxpA+DbQjZkXab1MjxBAQilAKwUnBFpbwMgWDXLHjM4QQEIqQD8Q3BGpNdcQRuqbjMmGpygAIQS/m8WmpEZvkLQhmjkymc88Q8UgJAKwLlCMyJvu7qUTLEBEKTLZjcYmqAAhFQABgjOiLzvq4I2VJ0aLjA0QQEIqQDcLDgj8vHvCNoQjV2z2cAEBSC0AnC34IxIVa2wDVH/RfcbmKAAhFYAHhGcMW0AzBO2Ieo+61sGJigAIYX/YUIzMiNsAASpY/0ZBiYoACEVgPOEZkROvsYGQIiuuPt5wxIUgNAKwGDBGZEzbQAEadDiBw1LUABCKwC3CM6IfMIGQJB6z1trWIICEFoBWCs4I9KhTtiG6NKZNxqWoACEVgAeE5wR6W0DIEidGzoYlqAAhBT+RwjNyIxcKWxDk92UWVX7esMSFICQCsDHhaYNAMps9KrnDEpQAEIrADWCM6YNgK8J2xANXPw3gxIUgNAKwLcFZ0Q+eauwDVGveasNSlAAQisA6wRnRDrWC9swNwC+ZlCCAhBS+O+TekJwRqTPfGEb5gbAxQYlKAAhFYB2QjMyo1YJ2zA3AA4yKEEBCKkAnC80I/L2L9gACNGoVc8akqAAhFYAhgvOiLz/BmEb5AbAXX8xJEEBCK0AfFdwRuR8GwBhbgDMXWlIggIQWgH4keC0AUCZXTLzy4YkKAChbQA8JTgj0neBsA1Rp4bPGJKgAIRUAI4RmjYAqMgGwGsNSVAAQioAFwjNyDYABG54Rq58xoAEBSC0AjBScEbkLBsAQRpw1wMGJCgAoRWA2wRnRD71XWEbosvnLjcgQQEIrQD8WHBGpFODsA1yA2DG9QYkKAAhhf++qY2CMyLVNgAC3QC4wIAEBSCkAnCc0IzM6LuFbWgmbygl7WsPNCBBAQipAFwoNCPyjmuFrQ0AQAFoUgEYLTgj8oGvC9swNwD+ZDiCAhBaAfiB4IzIBd8TtmFuACw1HEEBCK0A/I/gjEhnGwCBbgBcaziCAhBS+L8i9YzgjEi/hcI2yA2A+k8ajqAAhFQAThSakblitbANbgNgfbYBcIDhCApASAXgIqFpA4AyG7Fyo8EICkBoBWCE4IzI2TcK2xD1X/RHgxEUgNAKwNWC0wYAZd8AWGwwggIQWgG4UXBGpMs0YRvmBsDVBiMoAJ4BQBk3ABYJ2zA3AM4zGEEBCK0AzBWcERljAyDQDYD9DUZQAEIrACsFZyROuU7YBrkBsOJpQxEUgBALwB3CMxLn2AAIdAPgfkMRFIAQC8AVwjMSn75N2Iao55xFhiIoACEWAK8CjkXX6ZsFboC6zZhqKIICEGIBOFZ4RmLg4o0CN0Ad6881FEEBCLEA7JN6UoDm3gPJ2DW+AQjNpK0bAPsZiqAAhFoCvi9Ac+60L80XuAEabgMAFICwC8BZQjTnzr+1TuAGuQHwvwYiKAChl4BfCNLc+n3SY9adAjfIDYAFBiIoAKEXgP6CNLf6JH0X/EzgBrkBMNlABAUg9ALw+tQjwjR3/i91QFKz7BGBG+QGwDkGIigAeSgBnQRq7vTe+rcbt9YGQHAbAOuyDYB9DURQAPJSAuqFam7M3vo369RwksANcgPgKcMQFIA8FYCDUw8K1+D9LfWfW/9mXacPErgB6rfwPsMQFIC8lYALUpuFbLCeT73wfvnkstk2AMLcAJhjGIICkMcS0Dm1SdgG57nURTv8raoX/ELghrgBMH28YQgKQF5LwOe2BY7gDSf8P/Oyv1PNskcFbpAbAGcahqAA5P3ngGeEb5t7NPWpnf6Nxq/dInADM3HdFhsAoADEUALO9KTANrU8deRO/zadGk4WuAEatvxJgxAUgFhKwCtTw7w5sKKeTY1I7fKTZNJteo3ADXID4LcGISgAsRWBI1INqS0CumyeSH0xddge/x6XzfYSoBBdNmeWQQgKQKxF4Mhtn07/R2C3ml+nxqXe0OS/Q/WCXwrcIDcAxhiEoAAUoQy8NTUxNS21fttDanxDsHv/2HZfxR2p7rv6jX+P//dDlz0mcIPcAHivQQgKQDH/AxrvGTgqdUrqVLY6ZdtPKPu32v/zhHtsAIQm/ZsYgqAAQPkOWaeGdwrcAA1d/oTzCQoAlO+QdZs+QuAGqHrhb5xPUACgfIfssjnTBW6IGwCzZzifoABA+Q5Zv4W/FrgB6jp9lPMJCgCU75ANW/64wA1xA6DuNOcTFAAo3yGzAWADAFAAKNoGQP17BG6IGwDLHnc+QQGAcm4AXCFwQ9wAWPAr5xMUACjfAes5Z5bADXIDYJrzCQoAlHMD4LcCN8gNgOHOJygAUM4NgCcEboA61J3qfIICAOU5XFf+aJ9k4jobAKEZbwMAUAAo7wbA+wRugGqWPeZ8Av4TKOMGwIxxAjfIDYB7nU/AfwLl3ACYI3CD3ACocz4B/wmUcwPgPoEb5AZAjfMJ+E+gnBsATwrcIDcATnY+Af8JlOdgta/dN5m0TtgGtwGw1gYAoABQ1g2AcwRukBsAjzqfgAJAOTcAJgncAPVd8AvnE1AAKOcGwHyBG6Aes+90PgEFgPIdrP6Lfi9wQ9wAmDbI+QQUAMp3sIaveErgBrkBcJLzCSgAlGsDYL9k0nphG5pxazc7n4ACQPkOVcf6cwVuiBsASx9xPgEFgHJuAEwVuEFuAPzM+QQUAMq5AbBI4Ia4ATDrDucTUAAo5wbA/QI3QF2m9Xc+AQWA8h2qESueFrhBbgAc73wCCgDl2gDYP5lsAyA4Y9fYAAAUAMp4oDrVnydwAzRk6T+cT0ABoHwH6pIZVwvcAPWZ/1PnE1AAKN+BunzuYoEb5AbAbc4noABgA6B4GwC9nU9AAaB8B2rQ4r8L3CA3AI52PgEFgPIdqJpljwncwIxZs8nZBBQAPAOgaAYvedjZBBQAynugRt/9vNANbgPgx84moABQ3gM1atVzQjcw3Wd919kEFADKe6AGLv6b0A1uA6CnswkoAJT3QPWat0boBmTKhlJSVXuYswkoAJT3QF068+uCNyDDlj/pXAIKAOU/UJ0bPid4A9Jr3hrnElAAqMyhGrnyGeEbiK7Ta5xJQAGgMofqstkNwjeEBwCt3pS0rz3QmQQUACpzqKrq2iWT1gvgtnbZnFnOI6AAUNmD1W/hb4VwGxp/z5akqvZNziKgAFDZg9Wx7rRkQhpCwrhtXD7nLucQUABoq5XAm4Rx26z+Je1rD3AGAQWAtjtgngxYWZPWlZJO9R939gAFgLY9YB3qTt56N7pwrtRz/29x7gAFgEDuB6g/Mxl9t5cElVuP2Xc6b4ACQGjfBJzqAUHlXPmb3eCcAQoAoZaAE5KaZY8J7NZc91u7JblkxtXOF6AAEPaBa1+7b/Z++q3BJcD3zuAlD2ffrDhXgAJAvr4N6Lfwd4K8BYaveDr91H99VqacJUABIL83CPacsyAZsWKjcN/det/67BP/Q0m36WOdG0ABIK7D2KnhgrQMzEuqF9ybDFr892TEyo1bH2lbpKCfvKHxJT7DVzy19f+g97z1Sdfpo5Kq2tc7I0Br+v+k49tk/iSYpQAAAABJRU5ErkJggg==;" parent="1" vertex="1">
          <mxGeometry x="310" y="710" width="60" height="60" as="geometry" />
        </mxCell>
        <mxCell id="UwD6m1JZilUZtlp3aEf4-47" value="" style="endArrow=classic;startArrow=classic;html=1;rounded=0;fixDash=0;flowAnimation=1;" parent="1" source="UwD6m1JZilUZtlp3aEf4-45" target="UwD6m1JZilUZtlp3aEf4-24" edge="1">
          <mxGeometry width="50" height="50" relative="1" as="geometry">
            <mxPoint x="680" y="600" as="sourcePoint" />
            <mxPoint x="730" y="550" as="targetPoint" />
            <Array as="points">
              <mxPoint x="400" y="670" />
              <mxPoint x="400" y="600" />
              <mxPoint x="400" y="540" />
            </Array>
          </mxGeometry>
        </mxCell>
        <mxCell id="UwD6m1JZilUZtlp3aEf4-52" value="Komunikacja z&amp;nbsp;&lt;div&gt;zewnętrznym api paypal&lt;/div&gt;" style="edgeLabel;html=1;align=center;verticalAlign=middle;resizable=0;points=[];" parent="UwD6m1JZilUZtlp3aEf4-47" vertex="1" connectable="0">
          <mxGeometry x="0.1257" y="-1" relative="1" as="geometry">
            <mxPoint as="offset" />
          </mxGeometry>
        </mxCell>
        <mxCell id="UwD6m1JZilUZtlp3aEf4-48" value="" style="image;aspect=fixed;html=1;points=[];align=center;fontSize=12;image=img/lib/azure2/databases/Azure_Database_PostgreSQL_Server.svg;" parent="1" vertex="1">
          <mxGeometry x="768.0400000000001" y="330" width="22.5" height="30" as="geometry" />
        </mxCell>
        <mxCell id="UwD6m1JZilUZtlp3aEf4-49" value="" style="sketch=0;pointerEvents=1;shadow=0;dashed=0;html=1;strokeColor=none;fillColor=#505050;labelPosition=center;verticalLabelPosition=bottom;verticalAlign=top;outlineConnect=0;align=center;shape=mxgraph.office.security.lock_protected;" parent="1" vertex="1">
          <mxGeometry x="740" y="336.5" width="12.86" height="17" as="geometry" />
        </mxCell>
        <mxCell id="UwD6m1JZilUZtlp3aEf4-50" value="" style="image;aspect=fixed;html=1;points=[];align=center;fontSize=12;image=img/lib/azure2/databases/Azure_Database_PostgreSQL_Server.svg;" parent="1" vertex="1">
          <mxGeometry x="555.1800000000001" y="330" width="22.5" height="30" as="geometry" />
        </mxCell>
        <mxCell id="UwD6m1JZilUZtlp3aEf4-51" value="" style="sketch=0;pointerEvents=1;shadow=0;dashed=0;html=1;strokeColor=none;fillColor=#505050;labelPosition=center;verticalLabelPosition=bottom;verticalAlign=top;outlineConnect=0;align=center;shape=mxgraph.office.security.lock_protected;" parent="1" vertex="1">
          <mxGeometry x="527.14" y="336.5" width="12.86" height="17" as="geometry" />
        </mxCell>
        <mxCell id="UwD6m1JZilUZtlp3aEf4-56" value="" style="endArrow=classic;html=1;rounded=0;exitX=0.5;exitY=1;exitDx=0;exitDy=0;entryX=0.5;entryY=0;entryDx=0;entryDy=0;fixDash=0;flowAnimation=1;" parent="1" source="UwD6m1JZilUZtlp3aEf4-35" target="UwD6m1JZilUZtlp3aEf4-24" edge="1">
          <mxGeometry width="50" height="50" relative="1" as="geometry">
            <mxPoint x="650" y="440" as="sourcePoint" />
            <mxPoint x="700" y="390" as="targetPoint" />
          </mxGeometry>
        </mxCell>
        <mxCell id="UwD6m1JZilUZtlp3aEf4-58" value="" style="shape=image;verticalLabelPosition=bottom;labelBackgroundColor=default;verticalAlign=top;aspect=fixed;imageAspect=0;image=data:image/png,iVBORw0KGgoAAAANSUhEUgAAAcwAAAHMCAYAAABY25iGAABHgklEQVR4nOzdCZgcVbk+8HearZulhxJEZjjF0i5ockXkglSB0p0gAWSHROTKIojsW7G4a1H6B5HFRhAUEFkEBBIFQQFRkxlQq/Wq4JJcF2yXKmYQlOO0YDcQKv+nSaEQsvR0n+7T1fX+nmee516S+eozmfRby6nvrL1s2TIQERHR6mV0N0BERJQEDEwiIqIWMDCJiIhawMAkIiJqAQOTiIioBQxMIiKiFjAwiYiIWsDAJCIiagEDk4iIqAUMTCIiohYwMImIiFrAwCQiImoBA5OIiKgFDEwiIqIWMDCJiIhawMAkIiJqAQOTiIioBQxMIiKiFjAwiYiIWsDAJCIiasHauhvoB0NDQ7pbIHqZyLHfmyn7N+vug2hFy5Yt092CNrzCJOozriW2BHBl5Ngn6+6FiP6DgUnUZ1zb/DyAPIAvLJw740Dd/RDRcgxMoj4SOfa7APw7JEvm8Dl6OyKiFzEwifqEa4nXArhphf9sR479oaLIa+qKiF7EwCTqE65tngrAWOE/DwG4oCTy22tqi4hiDEyiPuBa4s0Ajlzlr9smb80SaTaU5iXCL+JrJaSTa4n1XNv8M4DXrOG3Wpmy/+MetUW0UmnODF5hEmlWFPmTWgjLpjtdS4getEREK8ErTF5hkkaRYzdPWgMAoy1+y/mZsv+xLrdFtEppzgxeYRJpUhT5dQDMn0ZYNh3rWqLQxbaIaBUYmESalER+PwAHT/PbNnNt817XEmt1qS0iWgUGJpEGzcBzbfOsNr/9DUWRP0ZxS0S0BgxMIg1c2/wQgF3a/X5OACLqPQYmUY+5ltgJwLkdlnl95NhXF0We/4aJeoT/2Ih6zLXNMwGso6DUB0oiv7uCOkTUAgYmUQ+tOFy9U65tnu1afDWTqBcYmEQ94lpiMwDfBJBVWHaOa5tHKaxHRKvAwCTqkfhW7NpdKH2Fa4kZXahLRC/BST+c9EM9EDn2q+KJPut36RDXZMr+cV2qTfRvac4MXmESdVlR5PMA7u9iWDa9J3Jsq4v1iVKPgUnUZYvmzTwcwH93+TAbAfiOa4kNu3wcotRiYBJ1kWuJZpCd2qPD5Ysif1qPjkWUOnyGyWeY1EWRY98OYF4PD/k3ACJT9p/p4TEpRdKcGbzCJOqShXNnvKvHYdm0KYC7iiKv8tUVImJgEnWHa4lXlczhyzUdfo5riY9oOjbRwOItWd6SpS6IHPt+AHtobGEKwBaZsv+0xh5oAKU5M3iFSaTYwrkzDtYclk3DAO4tinw3X2UhShUGJpFiJXP4g7p7iL1j0byZh+pugmhQMDCJFCmKPCLH/jiAt+nu5SXOcC3BBUBECjAwiRQpifx/A/g0gH56KL6da5uX6m6CaBAwMIkUcW2zX27Fruj4hXNnzNLdBFHSMTCJFIgcezcA79bdx6qUzOFzdPdAlHQMTKIOuZbYEsAC3X2swR6RY3PfTKIOMDCJOuTa5ikAXq27jzVYG8D1riW20d0IUVIxMIk64FriDQCO1t1Hq1zb5K1ZojYxMIna5FpiHdc274/ntybFB1xLbKy7CaIkYmAStako8h8AsJXuPqZp7aLIO7qbIEoizpLlLFlqg2sJuLb5RwBb6+6lDZwzS21Lc2bwCpOoDUWRn5fQsATnzBK1h4FJ1IY+mhfbLs6ZJZomBibRNMTzYj8FYEfdvSjAObNE08DAJJqGksi/DcAndPehyHaubZZ1N0GUFAxMomno43mx7TqBc2aJWsPAJGpR5NjvBHCI7j5UK5nDZ+vugSgJGJhELXAtsTWAW3X30SVzIsc+UncTRP2OgUnUAtc2TwWwie4+umRtADdwzizR6jEwidbAtcQMAO/T3Ue3cc4s0eoxMIlWw7XEG1zb9AG8SncvPXBc5Ngn6W6CqF8xMIlWw7XN0wHkdffRI2sBuMK1xBt1N0LUjxiYRKsQOfYOAN6ru49e461ZopVjYBKthGuJ9QF8N567mjbvixx7hu4miPoNA5NoJYoif3JKnluuTPNz4R7XEq/R3QhRP+H2Xtzei1YQOfbaAB4FsJnuXjT7ZKbsf1p3E9Rf0pwZvMIkeomiyK8H4E6G5QtOcC2xhe4miPoFA5PoJUoifwCAfXT30SdGXdu8y7UEb8EQMTCJ/sO1xNqubZ6lu48+s0NR5A/X3QRRP2BgEsVc2zwXwNt099FvSuYwXzMhYmASLedawgbwYd199Kk3R459SVHkeWuWUo2BSbT86vLseNINrdyZJZF/u+4miHRiYFLqRY59EIB9dffR7zgBiNKOgUmp5lpiFMACAOvq7iUB9osc+0DdTRDpwsCkVItXxfLfQeuudy3xOt1NEOnAST+c9JNakWO/BsCfAGR195Iwl2fK/mm6myA90pwZPLOmVCqK/MYA7mdYtuWIyLHforsJol5jYFIqLZo380gA2+nuI6FeONlwLcGTDUoVBialjmuJ5gf+qbr7SLjNiiJ/ku4miHqJzzD5DDN1Isf+FufFKjEBYMtM2X9edyPUO2nODF5hUqosnDuDw9XVGQUwvyjy6+huhKgXGJiUKiVz+IO6exgwB5VEfj/dTRD1AgOTUqEo8ogc+8MAbN29DBrXNs9yLcGxgjTwGJiUCq4lDgXwGQB8YK3eLq5tfrso8lw1SwONgUmpwFuxXbdnSeQP0t0EUTcxMGmgFUV+KHLs8wDsoLuXQefa5plFkednCg0s/nDTQCuJ/M4APqq7j5TYsSTys3U3QdQtDEwaaNySqrdc2zzbtYTuNoi6goFJA8u1xGsBHKy7j5TZ07XNI3Q3QdQNDEwaWK5tcqGPHl90LfEm3U0QqcbApIEUOfbrARyju482LQFQ191EBzZwbfMM3U0QqcbApIFTFPlXA7gPwNq6e2nHWDD1aQBX6u6jQ4dFjr2z7iaIVGJg0sBZNG/mBwAUdPfRph+Oh7VbPT+4GECSh5pvFG8BtoHuRohUYWDSQHEtsTmAE3T30aa/eH5wsFcJ4VXCx+IFS8/obqoD+aLIn6a7CSJVuL0Xt/caGK4lhlzbrAB4m+5e2vSRTNm/4KX/IXLs2wHM09dSx/4GYItM2X9WdyOkRpozg1eYNDCKIn9YgsPykVnzF1+74n+Mb80u1dOSEpsCuItzZmkQMDBpYCR4XmwzEPcaD2tPrPgLXiX8CYBP6WlLGc6ZpYHAwKTEi+fFXgjgLbp7adOXM2X/D6v6Rc8Pzgfg97YltVzbPNO1BDeapkRjYFLilUR+FwCJHYHn+cFFq/31Svh8fGs2yXZ0bfPTupsg6gQDkxIvwRN9lgI42quE1TX9xrGw9i0Ad/Smra45Z+HcGbvoboKoXQxMSrTIsfcDsL/uPtr0vUzZv76V3zge1p4FMBfARPfb6ppMyRw+W3cTRO1iYFJiuZZ4HYCv6u6jXWPB1Gpvxa4oU/ajsWAq6bdm94kcmwPxKZEYmJRYrm2eBmBYdx9tumb2giULp/tN42HtSgCPdaelnlgXwALXEqO6GyGaLgYmJVLk2G8BkNRtpH7l+cHp7XyjVwmf8fxgDwBSfVs9M+TaJm/NUuIwMClxXEtkAXwXwMa6e2nTpV4lbHs3Eq8S/hrADWpb6rkTI8d+je4miKaDgUmJUxT5kwC8WncfbfrBrPmLb+u0iOcHlyf8KrN50nN/UeSTetJDKcRZspwlmyiRY1vND9p4N4yk+ZnnB7ZXCZ9TUcy1xGtd2/wRgM1U1NPkykzZP1l3E9S6NGcGrzApMVxLbJjgsGxeFX5OVVhi+a3ZPwB4xfzZhPlA5Nhb6W6CqBUMTEqMeKuoRIZlM+jHwto3VBf1/CDpq2bXAfCdoshvorsRojXhLVnekk2EyLHXA/AogCR+sP493uKqK3tbRo69M4BKN2r30AczZX9a76WSHmnODF5hUt+Lt4b6VkLDEmPB1Oe6FZZYPtDgxwBu7lb9HjnJtURSF3JRSjAwqe+VRP4QAO/U3UebauNh7bJuH8Tzgwu7fYwu29q1zdtdS+jug2iVGJjU11xLrOva5pm6+2jTPwHs6VXCp7p9oLGw9st4x5ao28fqolJR5OfpboJoVfgMk88w+1rk2J8D4Ojuo03XZMr+cb08YOTYDwB4Ry+Pqdj/Zsr+23Q3QauW5szgFSb1rYVzZzQ/+NsaIdcHnvb84NJeH3QsmEr6rdmdIsc+tyjyuvsgegUGJvWtkjl8ToJ/Rk/2KuGSXh909oIlg7BvplsS+Z10N0G0oqR+GNGAixz7MAB76e6jTfd7fqBt1qvnB+8D8Dtdx1fBtc1zdPdAtCIGJvUd1xJbArglfqk9cTw/uMirhPqOXwlrALq+MrfL5kWOPUt3E0QvxcCkvpPwrZ+uGgtr097nUrVZ8xd/FcDPdffRodtcS3BsHvUNrpLlKtm+Ejm2CeCReKPhpPldpuxvq7uJF0WOvQmAvwBYX3cvHbgoU/Y/qLsJ+o80ZwavMKlvFEX+VQC+k9CwxFgw1Vej3TJl/+8AvqC7jw4d7Vqib05CKN0YmNQ3Fs2beTSAN+nuo02/HQ9r1+luYkWeH1wCYKnuPjqwqWub97uWSOTzbBosDEzqC64lNgVwiu4+2vRXzw/29irh87obWZFXCR8HcACAhu5eOrBlUeQ/oLsJIgYm9QXXNm8HsLXuPtr0Za8S/lF3E6uSKfv3ALhTdx+dKJnD53DOLOnGwCTtFs6dMRdAUl8hmPD84Iu6m1iT+Nasss2rNdiac2ZJNwYmaVcyh5O8CvJArxI+qruJNfEq4U8BfFJ3H52IJz8RacPAJK0Wzp1RApDUMWg3Zcr+/+puolXxFmA/1N1HB3aKHNvlnFnShYFJWiX5qsHzg756jWRNvEoYeX5wse4+OnQu58ySLgxM0iZy7CMBzNHdR5u+E+9BmShjYe3bABbr7qMTnDNLujAwSYuFc2fsBeAGAGvr7qUNU54fnDL+wsjWZBkPa8+NBVMnJnyj6XmRY19UFHmO6KKeYmCSFkm+FQvgSK8SPqK7iXbNXrDkwQEYzn52SeR31d0EpQsDk3oucuyTm5mpu4823ZUp+3fpbqJTnh98KOnD2XlrlnqNgUk95VrijfF800T+7CVtoc+qeJXwWc8PPqe7jw7tHzn2frqboPRI5IcWJZdrm0l+5/LisbCW5NcyXmYsrH0dwP26++jQja4lXqe7CUoHbu/F7b16JnLs/wLwi4SeqP0yU/bforsJ1SLHXg9ACGBT3b104LJM2T9ddxNpkebMSOIHFyWQa4nNAXw7qT9zKrfuihx7505ruJZ4VeTYHb+Skyn7z4wFU0m/NXtE5Njb6W6CBl8iP7woeVzbPB7Alrr7aNNPx8PazSoKRY69LYBDFZRaF8AdriU26rTQeFi7DMCUgp50MQB817XEerobocHGwKSucy0hAByvu482Per5wQFeJez4PlRR5IcBfBOAqmcA66vY9sqrhE/HAyT+qaYtLTYrivxJupugwcbApK5yLZFxbfPbAEZ099KmL3mVcEJFoUXzZjavLLdVUetFJXP4ZBV1MmX/JwBuUVFLl5I5fHbk2PxMo67hDxd1VVHkjwCQ1OdLf5w1f/HVKgq5llgbwIkqaq2gEDl2WcXUG88PLgXwlJq2tBgFcHtR5NfR3QgNJgYmdVWCt+56HsC7xsPa4yqKxa/TbB//v6r3pTyjJPI7dFrEq4S/AXCcmpa0OaQk8vvqboIGEwOTuqIo8pnIsS8DMEN3L226LlP2f6OikGuJmSvsRfm8irovO4ZtKnl+lyn7XwNwj4pauri2eZZrCX62kXL8oaKuKIn8bgBO1d1Hu1RO9IlXCHd7BeeRkWMLFYUGYJrRrgkfkEF9ioFJXZHgD6zm1d8JXiX8nYpiriW2AfA/KmqtwdoA7i6K/IadFhoLaw8MwHD2T7mW+G/dTdBgYWCScpFjvwfA3rr7aNOiTNm/SkUh1xJDrm1+A8AmKuq1YPuSyB/caZHxsBbFk3OSvG/mOq5tnqW7CRosDExSyrXEtgCu0d1Hu1RO9CmK/EEvWejTE65tnqTq+d1YMHWhijoaHRQ59l66m6DBwcAkpVzbPANAx7cFNblx9oIlyoaRl8zhU1TVmoadXds8QUWh8bD2VQAPqailSRbAXa4lkjwnl/oIA5OUiRx7px49r+uGJZ4fKJsUEzn2YQB2U1Vvmi50LfH6Tot4lXCZ5wf7AVAyuEGTdVzbPFN3EzQYGJikhGuJDeKtovK6e2nTpfGIuI65ltgMQPPqbK2V/brnBw0Vx1mNDVzb7HhkHpaH5qMAvqSilkanRY49rLsJSj4GJilRFPlTAWysu482/XjW/MVfU1WsKPInrCose+hI1xKjKgp5fnA1gD+qqKVJ82TuOypWEFO6MTCpY5Fjr1Myh5N62+spAHuOhzUlI+Eix86UzOF+GAL+Gtc2lZwEeJXwrwD26cbAhR7aedG8mUl9XEB9goFJHSmK/HoA7gLwat29tGMsmLosU/aVbG1VFPnmv6cbm2Glop4Cuy2cO+NdKgplyv7/AfiKiloanR4/OiBqCwOTOuJa4sMAkrp0f5FXCf+fqmKuJY4G8F5V9VQomcMXuZbIqqg1a/7i5t/1/6mopckM1zZ/GG+zRjRtDExqW+TY65fMYUd3H22SAPYZD2t1VQVVbbWlWDMkPqWi0HhYexLAngCeVVFPk7csmjfzSN1NUDIxMKktRZFfH8C9ABJ5tj4WTF2aKfvKwjJy7LMBvFVVPcUc1xJKesuU/WAAVs2e6loikT+3pBcDk9oSb4as6z3DTv1rPKxdqqqYa4nXAZjOhKBeL55Z27VNZXtxen5wsapamrzetc0bdDdBycPApGmLn4mdobuPNj0NYC+vEtZUFWxja62lqo49De92LfEmFYW8Sti8yjy0C/t69tIBC+fO2E93E5QsDEyaNtc2m1dn2+nuo023Zcr+g6qKRY69IQAlQwK6bNi1zbtcSyh5PzRT9m9P+r6ZJXP4HN09ULIwMGlaFs6dMRvA8br7aFPd84OyqmJFkV8XwJ0Jmp37uqLIH6qqWDyoPlJVT4NdI8fmjibUMgYmTUvJHD5bdw8dOMOrhL9WVawk8nsD2F1VvV5QORB+9oIlPwSQ5OeZzc+/i11LvFl3I5QMDExqWeTY7wOwh+4+2vR9zw+Ubjvm2mY/vkayJjur3FjZ84OPA/ipqno6uLbJW7PUEgYmtcS1RAHAdfHO/onj+cHFXiVcpqqea4k3JPTkIaN0xWwlfM7zg0tU1dPkcNcSI7qboP7HwKSWJPws/PqxsPZdlQXbWBnbT+ZGjj1TVbGxsHZH/E5uUg25tpnkRw3UIwxMWiPXEgaAY3X30aZqpuwfPR7WlL37GDl2vsM/D92TcoYB3K1qxex4WHsGwAEAnlBRT5OTIsfeTHcT1N8YmLRGRZE/M6m3YuOVnMrEw+bvjLeMalc/rCzdpijyh6kqlin7z40FU0m+NZsFcD/nzNLqMDBptSLH3qhkDp+uu482yfGw9mWVBUsi/y4As1TW1EX17NvxsHY5AGXjBjXgnFlaLQYmrVJR5JtXUfcB2Eh3L+0YC6bKXiVUOlUn4c8uV/S2yLFPUFXMq4T/AvAFVfU04ZxZWiUGJq3SonkzDwOwi+4+2vTUeFj7vMqCkWMfAOCdKmtq1vz3/0XXEluqKhivmE3yRtOcM0urxMCklXItsX7C58XurXRerCUEgGtV1esnKq+avUr4VwAHAXhGVU0NOGeWVoqBSSvl2uYVAJS9etBjt2XK/g9UFnRt82gAm6is2UeOjxxbySbTWL4A6G4A31RVTwfOmaWVYWDSKyycO2MPAO/T3UeblM6LxfKry40BHKOwpLIBCoo0//fNL4r8OqoKxrdmdezKogrnzNIrMDDpFRJ+dn26ynmxWH51eSWArRWW7MfblfuWRF7Z81mvEv4EwLmq6mnAObP0CgxMepnIsY8DMFt3H21SPy/WEu8AoOx9xX6megWw5wcXAPiRypq9lvAJV6QYA5P+zbXE6wFcBUDJBJhe8/zgIq8SKq2Z0AHr7do3cuyiqmJeJXx+EObMRo69g+4mqD8wMOnfXNv8oO4eOvCVsbD2PZUFI8feBcD+KmsmwC2uJV6jqthYWLsbwNdV1dNgCMBdriVGdTdC+jEwCUWRR7zAQeXCll66J1P2369yXqxriW0BNAM4p6pmQoy6tumpKjYe1p7z/GAegIWqamqwhWubSheSUTIxMAklkX9zvBFwIn8ePD9QOi8Wy6+2j0thWL7ofSoHkXuVcJnnB0neaLrp3ZFj76a7CdIrkR+QpFbCb8VeNhbWHlBZMB5ScLjKmgmzHoC7iyK/vqqCY2HtfgDXq6qnyQKVU5EoeRiYKRc59o4JDoclmbJ/+nhYU7b7h2uJ5gnEbQC6udVTEt5PfFtJ5A9QVWw8rD2fKftHA/iDqpoavDpli8BoBQzMFHMtsUWSJ7Ko3roLy5/n7teD+blJCMwXXjNxLTGksmY3/s567Jh4NTmlEAMzxVzbPBFAUlf//XI8rN2ouqjqLa8S7u2ubSrd7mo8rF0L4BGVNXtsU9c273ctkcj9YakzDMyUci2xDYBjdffRpknPD/bxKqHSjZgjxz4QwO4qaw6Ay+KfFSW8SrjU84M9ATyuqqYGWxdF/gO6m6DeY2CmkGuJtVzbvBeAsvfteuwqrxIqnVDgWsIAcDsAXjm8XN61TaUnVl4lrAJQurF3ryV8fCS1iYGZQkWRPxrAtrr7aFPg+cFVqosWRf4EAMqGjw+Yo1xLKF0E5fnBlQAmVdbssW0ix76+KPKJnIpF7WFgplDJHE7qayQRgH29SviY0qKOPcRnl6u1hWubSl8J8SrhowAOVFlTg6NKIj9HdxPUOwzMFGmeDUeOfTWApK7yuzFT9n+psmBR5IcANP9MtlBZdwDtHW/7pkym7P8EwE0qa/aaa5tnq15JTP2LgZkiJZGfDSCxixW6MdGnJPK2hsVP/bi91xp14yrc84MLVdfssdmubR6vuwnqDQZmSsQv5Cd1oUIE4DSvEi5RXVjTi+j9toF0q/aKHFvpVeZYWPsVgLPjv+OkKnPfzHRgYKaEa5vHAFD6YddD45myf7nqopFjvwHAe1TXHWDrAbjDtcSGqgqOhzVkyv4lAH6gqqYGWdc2Hd1NUPcxMFPAtcRMAMoDp1e6NNFnOJ5yxH8D07NBN95BHIAJQO+OHPsdupug7uKHRQrEZ7/KBmn32O2zFyy5V3XRRfNmHgrgjarrpkE3nmXOXrDkWwnfN3MDAPe5lhjW3Qh1DwNzwEWOvSuAQ3X30abfeH6gfEFOPNbsBNV1U+S1kWNfUhR5pUU9PzgGwG+VFu2t9Ysif7ruJqh7GJgDzLVe+ES7D4CyZ049drlXCf+puqhrm2cDeKvquilzZknkd1BZ0KuENQCXqazZayVz2IkcO637qA48BuYAK4r8aQkOy5/Nmr9Y+Tt6riVmADhXdd1pSuoq2ZdxbfMk1TXjv/Ofqa7bQxsDuEflXqLUPxiYAypy7GzJHD5Tdx9t+heAOeNhraa6sGubJ8SrPXVK5HuYK3Fk5NhKBz7Ef+dz4p+BpCqVRH6u7iZIPQbmACqKfA7AtwEYuntp0xcyZf9J1UVdS2wN4H9U102xdQDcXRT5DVQWjf/uE7uqG/FCO9cSuk/MSDEG5gCKz25n6+6jTc97fnCJ6qKuJYZc2/w6gE1U1065t5ZE/hDVReOfgURstL0K27u2mfRXZWgFDMwB0zyrdW0zqbdinwFwgFcJle+VWBT5gwAoXaRCy7m2eaJrCaWfJV4lfALA/gAaKuv22CkL587YTXcTpA4Dc4AURX5D1zbHmme3untpx1gw9dlM2f+26rquJTYomcOfVV2X/s1ybfMW1VtdZcr+vWPB1AUqa/bYUMkcvrIo8tw2bkAwMAfIonkzD2t+eOnuo02N8bB2aTcKu7Z5CYDXdaM2/duhJZEvqi4a/0wkeQHQzJLI76O7CVKDgTkg4rPYM3T30abmB+K7vEooVRd2LbFzkndoSZJuvGbiVcIpAHsBeFp17V5xbfMs1besSQ/+JQ6IksjvC2CG7j7atCBT9hd1o3D8Id5vP+dJXsyyOoe4lhhRXTRT9h8EcJvquj309mZo6m6COtdvHyTUhubZa4L/QS71/OBz3SjsWmJzAAd3o3aHBjUwURT5E7tR1/ODMoDnulG7R85zLcFFZwnHwBwArm1+CMCuuvto03e9SviLbhR2bfOoBE86SqSSOXxi5Nhrq67rVcJfA1A+hL+H1knwSS3FGJgJ51pix+bnie4+2tWtbZ3iPRuVD26nNdoUgPIVs1j+s3JxwjeaPihy7Dm6m6D2MTATLj5rTeqy9atmL1jSrWeXl3JlrDbzSiI/S3XR2QuWPAigrLpuD+UA3O1agsMzEoqBmWCRY+8N4EDdfbTpl54fdGVVr2sJG8Ax3ahNrenGilksf5b5UQA/70btHlm3KPJJHSySegzMhHIt8WoAdwHI6u6lTZd6lbArU1xc2zwRwFA3alPLDooce0fVRb1K+Gw3Rif2UskcPi1ybLWbiVJPMDATKr4Vq3xxRY88OGv+4q68JhA59n/36crYNFpQFPlNVRcdC2vfAPAd1XV7aMNm/0WR54K0hGFgJlDk2AaAU3T30aYpAHuPhzXl01tcS6wL4FsAlO6e0QWDsr3Xmmy1aN7M96ouOh7WGvGc2b+prt1DVjyZixKEgZkwRZHfCMD9CQiFlRoLpi7NlP2uTG0pivwRADbvRm3FBmID6RYd51pC+WODTNl/diyYSvStWQCnu5ZI5L/jtGJgJsyieTMPB6D82VCP1Ls1LxbLnw0d163a1LYZrm1+pBuFx8Pa5QD+0Y3aPTLTtc0rdDdBrWNgJkj8buFpuvto04vzYrv2Aef5wWHxO6nVbh2DWrYUwPfHgqn/8fzg0904gFcJnwYwB0CtG/V75KiFc2fsobsJag0DM0Fc27wWwBt199Gm+ZmyP9bNA3iVsJop++d6fvDm+H29gR1B1+eaQbZfpuy/c/aCJV/zKmHX/h4yZf9/Adzcrfq9UDKHz9HdA7WGgZkQC+fO2BvAu3X30aZn4lmgPeFVwn9lyv6Znh9sD+AbCZ8OkyTBWDB1vOcHm2XK/n29OqjnB58H8M9eHa8LZkeOzR11EoCBmRAlc/iDunvowNndmhe7Ol4lXJwp+4cA2BbAr3t9/BRpnpB8pXllP3vBkqubJyy9PLhXCX+b8DGIawG42rXE63U3QqvHwEyAyLFPA7Cb7j7aNOb5gdaFDZmy/8is+Yut+Bnnd3X2EhuUVbJ/A3CF5wc7Zcr+++O9K7XIlP3bAdyj6/gquLbJW7N9joHZ51xLzADw+aT+XXl+cLFXCbUHxHhYe9qrhLdmyv4cAG8H8CeN7QzCe5j3Na8oM2X/FK8S9sWoOs8PLtTdQ4eOiRx7W91N0Kol8kM4TVzbTPKt2JvGwlrfTWTJlP0fzpq/eAfPDz4AwNfdT4LUANzg+UExU/b39irhY7obeqmxsPYAgK69ttQDazWvkosiv5nuRmjlGJh9LHLstwA4QncfbZoAcOR4WOvLlarjYU16lfDLnh/sAuBQAE/o7qnPPez5wY6Zsv8+rxI+oLuZlRkPa8syZd9J+PPqwqJ5M5P8PHagMTD7lGuJkXjMW1L/jkYBPLJw7oxPu5aYURT9OWvaq4QvPP/y/GA7AM0P21/p7qmP1AHcMRZM7eP5wVu9Svh73Q2tiWuJ9QbgrsEJriWSMLEqdYaWLdP+eEm7oaH+29gicuxb4yufQfEQgFs9P7jdq4Q6nx+uVlHkh0oiv7Nrm8cAeC+A9VUfw/MD26uElU5qND9QXducVNfVyywGcL3nB7d4lXCiS8dQpijy+ZLI7+Xa5rx4xuy6untSIPT8YOd+/PNPc2YwMPswMCPHfjuAB3X30SUNAJd4fnB+r18/mK7IsYcB3AZgT5V1+zgwm38fn/L84JJuDhtQxbVExrXNQwB8DoDQ3U8XfCpT9l3dTawozZmR1Nt9A8u1xJYAvq67jy7KAviYa5u/iRz7c64l+nYubqbsT82av3hfzw/2APC1AZ4c9Mdmjnt+sF2m7H+238PStcTMyLHPdW3zlwBuH9CwRDy4fkvdTdB/8Aqzz64wI8f+LIAkr4xtx0czZf8zuptYk8ixmx9e8wG8rZM6nh/s6FXCn3VSQ9EV5tL4PcqPxXNZ+5prCeHaZjne7zQtJ/uLmycyXiXsm2lVac6MpG5APJDiSR/H6O5Dg/Mjxz4RwC2eH9wyFtZ+NR7W+u5fZabs/6Uo8qWSyO/p2uYF8QShdjyvuLV23Oz5QfNqsq8XORVFfq2SyO8UP588FkB/rh7rnplFkT8KwHW6GyFeYb6gH64wXUus49rm7wBsrbuXPnArgPdnyn7fPuOMHPtOAAe0873xitOHOzm+givMWd0eht+pyLG3ioNilu5eNPu/TNmfobuJF6U5M9JyW6PvFUX+WIblv70HwBORY1/vWmLPosivp7uhlVC+epZeOBF4tWuJYyLHvjfepi3tYdn0psixLy+KPD+vNeMt2T4QOXbzEpdzJF+uGUhHubZ5lAv8DMARmbL/f7qbeoms7gYGiWuJdV3bPKn5fwLYWHc/feiUksh/YzysLdLdSJrxjEWzosg3T1puALCN7l762H8DWBI59n2uJY4qiryhuyEAOd0NDALXEjtHjn2xa5u/ifcwZViuAoez68crTM1KIj8nwePvem1P1zb3dIHHAJwRD0HQ9UCFgdmByLFnALgawK66e0mQvSPHfk+m7N+qu5G04hWmRq4lhnjW2JbNAdzq2uZDkWN/yLWEjqtz3pKdJtcS+YVzZxwdOfY9AH7KsGzLNa4luKOJJgxMjeJnNiXdfSTYWwBc4NrmksixL3AtsWEPj93Jop+Gwj4SIXLs01zbfLJkDn+leaXEK/S2beja5um6m0grBqYmriWaH/aX6O5jQDSv9j7k2ub/RY59qWuJjgYLtKgfV+72jaLIr9X8e4gc+6LIsf8c7+m6lu6+BsR7I8fu2wlZg4yBqYlrm2fyQ1c5AeB01zZ/HC8Q6uZrOnytZBUixxaL5s38TvPvAcDZADjeTa08gPtdS/BnsMcYmBpEjj0LwFzdfQy4PV3b/EXk2Be6lti+KPLKplO4lsjwZOflXngeb4l3Ro79bQDNK8rddfc04IyiyJ+iu4m04SrZHnMtYQC4h4tGeqJ5Jn6Oa5vnuMtnwB6TKftPdVrUtc1mXf3jofpE5Ni7xq9GvVZ3L2lSMod55d5jvMLssbGwtnE8+u1J3b2kzDwAj0eOfaNrib07nB60qcK+Esm1xMjCuTNOixz7QQCLGJY98xiAizw/2G7W/MWn6m4mbXiF2WPjYe2PmbJ/tGuJLVzbvKLdeaTUlhyAI1zbPMIFHgZweKbsL26jznAXekuEyLGbJ9nnAfiw7l5S6CIAH8qU/fQOc9WMgamJVwkf9Srhga4ldnJt8/D4meao7r5SZHsAv44c+7ueH3wNwDe9StjqVf8mHR67b7ZqakVR5Nctifw74h1D5ir430+te2QsmLppPKzd5FXCP+huJu0YmJp5lfB/m1+uJT7p2ub5AI7j30tP7eHa5h4A/ura5pmeH9zawt6DnY7me7bD7++ZyLGbJxZfAfBW3b2k0DmZsn+x7iboP/gMs094lXAqU/ZP9vzgzfEtr0d095QyrwFws2ubD0eO/RHXEoXV/N5+mGXbNa4lROTYp0aO/QCAhxiWPbMMwC/GgqlzPD8YYVj2HwZmn/Eq4W8yZf/jnh/MBPARAH2/E/6AaZ6wnB8PQbjItcRGK/k9A3lLsvm/NXLs8+J9WS8D8A7dPaXIcwCOzpT97WcvWHKxVwkf090QvRIDs095lfDZTNm/wPODGfHWX7/Q3VPKrAvg7Dg4L3MtsfNLfm1gFv24lmh+zY4c+4uubf4WwEc5tq5nngfgjwVTJ3p+8OpM2b9Bd0O0ekNp3j37RUND/f9KXVHkh0oi/1/xAqEjAIzo7imFqmPB1C0lc3hHAHu1W8Tzg228SvinThpxLbG5a5uTHZT4MICt4tdtUv+aTI/9HsAtnh/c4lXC3+luZrrSnBkMzIQE5ooixz4/vmVLCdMngUm99xSA8zw/+JxXCROz8GtFac4MrsZMqEzZ/6hriauLIv/ekjncvOp8o+6eiGilfgngq/H+rX/R3Qy1j4GZYPFVynnNr8ixTwJwhe6eqCXP6W6AeuZazw+Oa+FVJUoALvoZEJmyf6XnBzvEW4YFuvuh1XpedwPUVRMAPuv5wZtnzV98LMNycPAKc4B4lfCh5pdriXNd23QBnBav9iSi3vhMpux/VHcT1B28whxAXiV8KlP2z/H84L8AnAvgt7p7Ihpgj4wFU5/0/GAbhuVg4xXmAPMq4e+9Sui5ljjPtc1Tmv8p3vKKiDq3DMCZmbJ/qe5GqDd4hZkCXiVc2vxHHQ9BcAD8THdPRAnVDMmHx4Kpszw/eA3DMl14hZki8Q4pl7qW+LxrmwfFq2o3190XUUK8OL7uZt2NkB68wkwhrxIuy5T9b8yav3im5wfvjzcAJqJXeh7AD8aCqeM9P3gVwzLdeIWZYuNh7cnxsPYVrxJ+JXJsC8B1HIDQEw3dDVBLpgC8J1P279PdCPUHXmHSCzJlvzJr/uIdPT+YB+CbfFeQUupZAPeNBVOHe36wGcOSXopXmPRv42Ht6fGwtsCrhAsix94SwK0AbN19EfVIAODdzZNH3Y1Qf+IVJq1Upuz/Zdb8xSXPD+YAuBHAUt09EXXJT8eCqYPi9ygZlrRKvMKkVRoPa8+Oh7XvepXwu5Fj3xhfcXIrKBoUjwE42fODO7xKmN4tOKhlDExqSabsf9+1xEhR5A8umcNHANidGw1TQo17fnATgGZQ/l13M5QcDExqmVcJlwK4vfkVOfb2AG4B8CbdfRG16BEAx2TK/oO6G6Fk4jNMakum7D/s+cHMsWBqbwA3xUvwqTXcvaK37vH84LBZ8xfvwLCkTvAKk9oWP/e5r/nlWmJr1zavAfBO3X0lQGJ320+YhwAcnin7S3Q3QoOBV5ikhFcJ/5Qp+3t4frArgC8BeFx3T5RKSwHM9/xgv1nzF+/KsCSVeIVJSnmV8EfNL9cSH3dt8xIAR/DEjHpkDMD/ZMr+pO5GaDDxg4y6wquEf8+U/fd5frA9gM8C+JPunmgg/QvAdZ4f7D5r/uI5DEvqJl5hUld5lfBXXiX8cFHkP1ES+be7tnk4gPcAWF93b5RYDQCLxoKpr46Hta97lZDPhKknGJjUE+Nh7bnxsLbIq4SLIsc+BcANAObp7osS5w/xbdef6G6E0oe3ZKnnMmW/Pmv+4kM9P9gJQBnA07p7or73k7Fg6gDPD97AsCRdeIVJWoyHtWXjYe2nXiX8aeTYXwZwM4DtdffVI7yF2LpHAZzi+cGdXiXU3QulHAOTtMuU/SWuJd4KYPf4GecBAAzdfXWLVwk5uGDNFnl+8NWxsPbN8bD2pO5miMDApH4RXz1836uE33ctIVzbvBLAfrr7op77PYAjuWsI9SM+w6S+41XCMFP29/f8YGcAlwPgqwKDrXnF/S3PDw6Nx9cxLKkv8QqT+pZXCX/S/HIt8QnXNj8L4P38mR04PwPwnkzZf0R3I0RrwitM6nteJZzKlP0TPD/YDsB58asFlFzPAbj1JePrGJaUCEPLlnHf1KGhId0t0DS4lsi6tnkGgE8kcQBCpux3/APnWmJz1zaTeKt6IYBDM2X/b7obofakOTN4hUmJ41XCRqbsX+D5wZsAfBDAL3T3RKv1LwDXen4wa9b8xXsyLCmpGJiUWF4l/Eum7F/k+cEOAI4C8ITunlqQtn1DFwDYNFP2j/Uq4dh4WFuquyGidjEwKfG8Shhlyv6Nnh/MBHAigB/o7inlngRwmecHO82av/jdmbJf190QkQpccUgDw6uET3iV8EsAvhQ5dgnAtQAKuvtKmeaf/ymZsv+87kaIVOMVJg2kTNkfmzV/8VvHgqmPAPi17n4GXA3ATWPB1F6z5i8+kWFJg4pXmDSwxsNabfaCJRcAuCBy7PcDuArAWrr7GjDjnh8c7VXCP+puhKjbeIVJqZAp+9d6frDJWDB1EgAfAK+C2vc3AFd7fvCOTNkvMSwpLXiFSanhVcIpAF9sfkWOvS+AmwAM6+4rYW7z/OA0rxI+rrsRol5jYFIqZcr+t1xLbF4U+UNK5vDhAGYBWK8Hh07iaxWPApjv+cFXvUr4c93NEOnCwKTU8iphI96H8+bIsXcG8DUA23T5sE91ub5KzXC/wvODT3qVsKa7GSLdGJhEy684f+xa4nVFkd+nZA4fAWBvABvq7kuTR+Jbrzd5lfA3upsh6hcMTKJYvLHz3c2vyLFfD+CrAHbW3VcP/QvAeZ4ffC6++iail2BgEq1Epuz/HoDlWqLo2ubhAA4CsInuvrrk1wBu9vzga14l/LPuZoj6FQOTaDW8Sjje/CqKvFMS+b1c2zwCwL4D8ErWEwBu8vzgprGw9tB4WEvvFhRELWJgErVgPKw9NR7WFniVcEHk2FsBuC3Bt2u/AOD0TNmPdDdClCRJP0sm6rlM2f/zrPmLdxsLpo4D8EBCXhX5R3xFOWfW/MWnMiyJpo9XmERtGA9rz85esOQaANdEjv1OALe2+IxTx2sl93t+cLxXCf+k4dhEA4OBSdShTNn/nmuJkaLIHxwPQdgdQG4Vv71XV6OPA7jD84MbvUr4ox4dk2igMTCJFPAq4XPxc83bIsd+azwQ4U0aWokAfM3zA8erhEnYUJsoMRiYRIplyv5DriVmFkV+r/iKc18A+S4fNgBwezxs4OEuH4solRiYRF3gVcJlAO5tfrmW2Nq1za/E82pVexbAlZ4ffMKrhEkau0eUPMuWLUv9F1EvuJbYNXLsDyqqNRw59rmuJbZVUY+oVbo/r3V+DTEwgKGhId0tEBElQpozg+9hEhERtYCBSURE1AIGJhERUQsYmERERC1gYBIREbWAgUlERNQCBiYREVELGJhEREQtYGASERG1gIFJRETUAgYmERFRCxiYRERELWBgEhERtYCBSURE1AIGJhERUQsYmERERC1gYBIREbWAgUlERNQCBiYREVELGJhEREQtYGASERG1gIFJRETUAgYmERFRCxiYRERELWBgEhERtYCBSURE1AIGJhERUQsYmERERC1gYBIREbWAgUlERNQCBiYREVELGJhEREQtYGASERG1gIFJRETUAgYmERFRCxiYRERELWBgEhERtYCBSURE1AIGJhERUQsYmERERC1gYBIREbWAgUlERNQCBiYREVELGJhEREQtYGASERG1gIFJRETUgrV1N9BvjOU+qLuPbpJSLpBS/qyV31soFI4DsE2Hh7ywWq3KFo71UQAbdXis6VgmpXwGQASgAeBpAFMAagCeAPBY80tK2ehhTy9TKBSOADCjwzLfr1ar31PU0mpls1mMjo4eCeBNikp+s1qtVtb0mxT9OV1WrVYn13Cc5meD0clB6vX6/ZOTk4s6qdEuwzBMwzBO6rDMRxS1kzgMzFcaBvBh3U102W8BtBSYAP4HQLHD413VzOkWft+pADbv8FjTYhhr/OyLDMNYDOCe5peUsiKlfLY33b3gYAAHdlijeVLQk8DM5XK7AbhBUbm/SSk/0+LvPQTAAR0e7zYAqw1MACcC2LqTg+RyuX0AbNdJjQ5soeDzLbWByVuyRKvX/DfyZgAfAjBuGMYThULhh4VCoWwYxm6GYaylu8F+kc1m1zUM42JF5apSyp2llDVF9frJmwuFwqm6m6DpY2ASTU8ewC4AzjAM48UAPVJ3U/1gdHT0CAA7KSr3cSllVVGtfnSZYRg9vZtCnWNgEnXGAHBDoVD4/cjIiGsYxha6G9LBMIxtAXxSQakIwGcmJibmK6jV17LZ7BkaDruBhmMODAYmkRqvy+Vy5xqGERYKhffqbqaXDMPY2DCMCoAtFZS7q1qtfrTRaCxVUKuv5XK5kwuFwlCPD7txj483UBiYROpdVygUFhiG0emqzUQwDONCRR/Ej0opB33B3UttCOAb2Wy216FJbWJgEqm3DoBDDMNYWCgUVFx19a1CoXA4gA8oKPUvALtIKX+roFaSHJjL5fbQ3QS1hoFJ1D2vAbB4ZGRkru5GumFkZGR3ANeqqFWv1z9WrVb/oqJW0hiGoeKEg3qAgUnUXRvmcrkbCoXCwN2ezeVyZQDrKih1T6PRuFRBnaSaWygUTN1N0JoxMNNJ2+SalFofwI9GRkZ21t2ICtlsdsNCofDN+P3UTj0gpTxEylbmWgy0HzT/XHU3QavHwEyfJwF8S3cTKTScy+Uu1N2ECqOjo6cA2F9FLSnl6TpHD/aRLXO53Pt0N0Grx8BMlyellLOllE/pbiSldisUCp9O8qrIQqHwdgBnKSj1TwAHSSkfVlBrIBiGcXQLoxpJI86STZF6ve5IKX+hu48u+zaA59bwezLxs7eh+EXujQC8CsBmANbrcn8fNwzjV5OTk7d3+TjKjYyMHADgGypOtOv1+vsnJyfvVNPZwNjBMIxv1uv1AxuNxjLdzdArMTBf6UkAju4mXmJ/ALMU1Hmg0WjcqKBOvzu8Wq3+o91vLhQK2wOY06yj6BndK8S33hIVmIVCYS0AZUV3pc6dnJwc+Ek+bdo/l8vt2Wg07tPdCL0SA3MFUsqalLIvVuwZhrGVYRhnKyj1eynlQVxYsWbVavVhAA9ns9kLc7ncNtlsdk4ulzsYQEnRitCmUqFQeEO1Wv2donpdlc1mm1ffdyjY5q3pdinlpxTUGViGYXxASsnA7EN8htmnDMNYxzCM78Xb8XTqEinlkwrqpEaj0WiePP1xcnLyqmq1uieAQwGouk2WA/BpRbW6bnR09CwAuyko9YyU8gwpJW83rt7BhUJhK91N0CsxMPtUNps9GcDrFJRaODExcZOCOqlWrVbvlFJu2/zzVFTyYMMwXqOoVtcUCoV9AZyioNSklNKWUq5pv0la7gfZbDavuwl6OQZmHyoUCuvlcjkVm7Q+DmDvRqPxtIJaqSel/L2U8jAAKv481wbwNgV1uiaehXt3vKVZp86TUj6koE5aCL5m0n8YmH0mfnn53njFZkfq9fr51Wr1WTWdEZaH5uNSyrfHi8M6ks1m36KmK/UMw1jbMAxVz/KvnZiYUDJCL034mkn/YWD2mdHR0cMVrYp9pNFoXKmgDq0gfnew41WuuVzujWo6Us8wjC8DUDEUfLxarR7baDQ4nGD6tle06I8UYWD2EcMwNlX0UviElHIPKeWa3kekNkkpv6GgjIpVp8qNjIwcA+AoBaX+Ua/XVfw8p9n5hmG8QXcTtBwDs08YhjFkGMadihb6XC6l/JOCOrRqDyhYNatiBbRShUJhOJfLXaSg1NLmFerk5OTPFNRKs3UMw1Bx8kIKMDD7RDabbf6j2FVBqV9OTExcraAOrYaU8hkAne7d+GpF7ShhGIYA4MdTjzpSr9fPq1arP1XTWeodZ/BhZl9gYPaBQqEwlMvlPqGg1NMAZjcaDb5z2Rt/7vD71y8UCusr6qVjhmF8EsCbFJR6uNFo/D8FdWi5TQ3D+I7uJoiBqV02m10XwG3N3Oy0Vr1ev7harf5dTWfUgicU1NhUQY2OZLPZ5knbcQCOVFDuoXjA/1IFteg/djIMY47uJtKOgalZLpc7BMA8BaUajUbjYgV1qHX/UlBD+8vpuVyuCOAqFYPnpZRnSc5gXJWOnnkbhnGculaoHQxMjQzDWN8wjA8rKlfmtl09l/gRb4ZhbGQYhopFPk0L6vX6IkW1BtHjAOodfP/+hULhHQr7oWliYGpkGMZ1ALZTUOppKeVnFdSh6VGxFZi2kxzDMDKGYdwLYCcF5Z6VUp7B1y1XqxmWH+/g+9cBcL9hGGsp7ImmgYGpycjIyEEA3q2g1BSA3aWUUwpq0fRsrKCGttuX2Wz2HEUrsx+TUu4qpXxUQa2BJqX8PICfd1Aim81mj1fYEk0DA1OTXC73SUWlrqtWqz9WVIumZ6TD73+mWq1qOdEpFAqvzeVy5yoqd76Ukq+QtEBK+Xz8vLhtuVzuDHUd0XQwMHssm82uVSgUvgBgewXlJvpl7860yWazQwBe32GZxxW1My2GYbwRwIPN/xkKyl03MTFxjYI6qTExMXE7gE72Qn19oVBQsTkDTRMDs8dyudyeAE5WUCoCsI+UstN3AakNuVxuKwUv+GvZ6sowjPMVXB03PVitVo/hnNjpaTQa/wBwcPxvuF3nG4bBPTN7jIHZQ9lsNmMYxscUlbu6Wq0+rKgWTVM2m1UxIP8PCmpMy8jIyO4A9ldQ6pl6vX6mgjqpVK1WFwP4eic1stksb832GAOzh3K5XPPDahcFpSIp5XkK6lCbcrncwQrKdHJbri25XO5SACpWWa7HiVKdkVJ+sZPvz+VyJ3BiXm8xMHvEMIy1FF1d1gEcIKUMFdSiNhQKhb0AvLPTOlLKX6jpaM2y2exGhULhLgD/paqmYRiOqlppVK/XHwCwoIMS2XgGNfUIA7MHstnsBoZh3A+g2Gmter1+brVa/Zaazmi6RkZGDgHwbQULZmoAvqeorTVZe3R09BoA+ymue0KhUDhCcc3UaDQaz0spDwXQ9grjXC73GcMwNpjGt3DLvw4wMHtgdHS0+aEyW0GpiUaj8XkFdagN8asYVyv6d/MlKeU/FdRpxccAHNqFumsDuNEwDLMLtVNBShlJKb/cQYkRwzDuUNgSrQYDs8sMw9gEgIrFEX+VUs6Kt5WiHjIMY92RkZGzAPxCxdZXAP4hpRyYub+8NduZer3+NQCd7F+7h2EYu7X4ezkUvwMMzC56yabQnb6vh/iKpOeLRNKuUCjsaBjGH3O5XDPgpnPra3XulVKq2OmkX5xQKBS077qSAEMr+4+NRqMGoKOdSAzDeH+Lv/XZTo6TdgzMLoofyL9dQanfTExMXKmgDq2BYRibG4YxZ2Rk5JOFQmERgB8CGFV5jHq9foPKen0g1zwJyGazG+pupM+tcnVytVr9PYA7O6h9qGEYb23h9/EKswNr625gUBUKhaEOBy2/qAHgnY1GQ8tUmATap1AoPN3i7802MxLAVvHGybv0YH/K709OTg7iZsA7jo6OvqdarXbyPG7QrfZ1Hinl1YZhHNhm7fUMw2ie4G28ht3VeIXZAQZmF8SbQn8VwGsVlLu0Wq1yqHXrbtLdwGr8QUp5mO4muujUbDZ7XaPReF53I31qtYFZr9e/YxjGt5snfW3WH85ms0cDuG41v4drIDrAW7JdEL/UrmInEm7bNVguGLBnlyvaLpfLdfx+6gBbbWA2Go0IwAGdbEzewmB2nsx0gIGpmMJNoacA7CGl/IeCWqRX84PwiomJia/qbqTbDMPguLxVW+PnbbVafb5er3cyAWi7QqFwUgffT6vBwFTMMIwvA3iLglLXV6tVX0Ed0u+OarV6SqPRSMPtsDmFQqEb73wOgpY+bxuNRqc7EH3BMAyuWu4CBqZCIyMjBwJQ8YzqMSllWUEd0u/uiYmJ03Q30WNXG4bxOt1N9KGWPm/jsZcf7OA4Q9lslleZXcDAVEjRptARgHdx266BcEu1Wt2/0WhM6G6kRUsBfElBnbxhGCq2sBs0K30Pc2Wq1epFAH7T7oFyudyJ7X4vrRoDU4F4U+jLALTyHtSafLlarT6koA7p83cAH5+YmDhedyPTUa/XPyWlbAadikcBRxiG8QYFdQbJtD5v6/V6J7dmNy8UChd08P20EgxMBXK53BwApyootUxK+f8U1CF9/glgr2q1el6j0XhKdzPT8ONGo3F+PNv0CwrqbWIYxr2GYfDVtTY1Go1rO1kxC+BDPGlRi4HZoeYHgqJtuxoADpRSBgpqUe89Wq/XPyalNKvVatu7T2jyEynlHCnlC68c1Ov1OwD8QEHdQjabfZ+COoOi5VuyWP4sc2k8Mq/tHUZ4a1wtBmaHDMM4D8CuCkrNr1ardymoQ713CQBzcnKyeYU2pbuZ6ZJSOlLK2ov/f6PRqAPYF0CrE5NWKZfLcTD7f0wrMLH8WeYPOxyZd2yhUFi/g++nl2BgdmBkZGQ2gLMVlPonBxQkzkP1ev10KeVW1Wr17Gq1ukx3Q234F4Aj6vX6j1b8hWq12gz+qxUcY0ahULgkm81OOyxoOSnlNR18ezMsv5HNZtdR2FJqMTA7kMvlPqHoz/BIKeViBXWou5pXXl8AsHW1Wt1hcnLyMinlX3Q31YGrqtXqTY1GY6W/KKW8TNFxzszlcpaiWqkjpfwugEoHJfbM5XJ7KGwptfhAvg3ZbBajo6MfA9DqHnSrc3u1Wu3klgup83Tz8wnAkwAmAfy5Xq//udFoVAEsAbD4xed8A+BHExMTn1ndb5BS/skwjOMBfLHTE0PDMBwpJQdxtElKubdhGL9vd3MAwzBOlFLeo76zdGFgtiGXy+0CQMlqVq6KVW63eKVqK5bFIwj/AaBRrVZXfqk1eP7U/HNqZUh6tVq9ulAoHA7gHR0ec16hUNg1fiZH0ySl/IdhGFcD+GibJfYtFAq7SCk7WXWbegzMaTIMo/n1CQWllgI4RUr5KwW16D9+Va1WOX931aJ6vX7a5ORky1fK9Xr9slwu12lgNi0wDOO/pZRJGeTQV6SUNxiGcQ6Adp9Hfi2bzba60TStBJ9hTlO8THsvBaXurVarVymoQzQd901OTt49nW9oNBoLAPyvgmNvHt/ipTZIKX/XwRVm05a5XG6Qt5frOgbmNBiG8TYAn1NQ6rl6vX6+gjpE0/FXKeU50/0mKWXz65Dm9yvo4VjDMEYU1EklKeXFAB7uoMSeCttJHQZmiwzD2NAwjGsBrNthqRqA0uTkZCer3oim6+dSyjdJKZe0881SyqBer39cQR+jhmH8xDCMzRXUSp345KWTwexbKGwndRiYLTIM4yYA/6Wg1A3VavUV770RdZOU8izZ/LTtQKPRuB6AiklUwjCMYxXUSaX4NZOf6O4jjRiYLRgZGZkX74TeqaeklCpu6RJNx1fq9fpYp0XiUW3vilcWd+o4wzA2U1AnlaSUewL4m+4+0oaB2YJ4QIEKN0sp/6SoFlGrglUNJ5iuarX6awC3KihlGoahok4qSSn/oWgSE00DA3M14m27vgTgzQrK/T1+YE+UaFLKKwA8o6DUrJGRkYMU1EklKeUNAAZlkEYiMDBXI5fLvQuAqmXwB0kpH1FUi0ib+N1hV0UtDmdvX/yaySLdfaQJA3MVDMNYV9G2XU3XV6vVBxXVItIuvlui4t3MXQuFgoq9ZFMpvtqnHmFgroJhGBcC2FlFLY6/o0EjpXxe0Yd18zPoMm503B4p5Z0A/qi7j7RgYK7EyMjIHACnKyj1LIDDpJR/UFCLqK/U6/UFql5vMAyDt2bbJKUsTmN+MnWAgbkSuVxOxQvaTXdUq1WuBKSB1Gg0ngawT/P/VFDu/YVCYSsFdVJHShkA+IruPtKAgbmCkZGRWQDerqBUXUp5gYI6RH2rWq3+DUAnGxy/aB0A92SzWUNBrdSJV8xGuvsYdAzMFcTvXKrYHf54KWUnMx+JEkHhRtMzRkdHD1dUK1WklA/xKrP7uL1XLN4U+qMAigrKNc/0ziwUCmcqqNUNP6pWqyfrboIGg5TyEcMwzgBQVnCyebJhGNdJKZ9S1F5qSCmPNwxjFoDX6u5lUDEwY7lczgZwnqJyzSv37RXV6obHdDdAg6VarX6+UCi8B4DVYaltDcO4Ukp5pKLWUkNK2TxRv8YwDD4K6hLeklW7KTRRatXr9c8rKnXEyMjI7opqpUq9Xr9O0axfWgkG5vLAPBHA3rr7IEqyRqNxm6I9MzkBqE2NRuNxRRtF0EowMJcr626AKOmklMvq9frlisrNKRQK71ZUK1Wq1eo4gO/r7mMQMTCXW093A0SDoNFoXBkP7OjUOgBuNQxjREGt1JFSXq+7h0HEwCQiZeJNqg9SFJpD8epbmqZ6vX4rgJ/r7mPQMDCJSKlqtXoPgHsVlTu5UCgMK6qVGo1GYymAXQAs1d3LIGFgEpFy9Xpd1TCDDeIJQBsoqpca1Wr1GQA36O5jkDAwiUi5ycnJhQBUzVHeJZfLzVVUK1W4/ZdaDEwi6gop5QnNCx0VtQzDOD2bzfLzaprikXkMTUX4A0hEXSGlnKrX62crKvdWwzCOV1RLl2d0HLRarZ4CYJGOYw8aBiYRdU2j0bgDgK+i1gAMM5DaDszXTJRgYBJR10gpm1/zFM0vfn2hULiCt2anj6+ZqDG0bNky3T0QERH1PZ6pERERtYCBSURE1AIGJhERUQsYmERERC1gYBIREbWAgUlERNQCBiYREVELGJhEREQtYGASERG1gIFJRETUAgYmERFRCxiYRERELWBgEhERtYCBSURE1AIGJhERUQsYmERERC1gYBIREbWAgUlERNQCBiYREVEL/n8AAAD//5rF3yvd41HNAAAAAElFTkSuQmCC;" parent="1" vertex="1">
          <mxGeometry x="617.14" y="570" width="60" height="60" as="geometry" />
        </mxCell>
        <mxCell id="UwD6m1JZilUZtlp3aEf4-61" value="&lt;font style=&quot;font-size: 42px;&quot;&gt;Frontend&lt;/font&gt;" style="rounded=1;whiteSpace=wrap;html=1;fontFamily=Helvetica;fontSize=11;fontColor=default;labelBackgroundColor=default;" parent="1" vertex="1">
          <mxGeometry x="-300" y="430" width="330" height="240" as="geometry" />
        </mxCell>
        <mxCell id="UwD6m1JZilUZtlp3aEf4-69" value="" style="endArrow=classic;html=1;rounded=0;comic=0;strokeColor=default;align=center;verticalAlign=middle;fontFamily=Helvetica;fontSize=11;fontColor=default;labelBackgroundColor=default;flowAnimation=1;exitX=0;exitY=0.504;exitDx=0;exitDy=0;exitPerimeter=0;entryX=-0.027;entryY=0.824;entryDx=0;entryDy=0;entryPerimeter=0;" parent="1" source="UwD6m1JZilUZtlp3aEf4-2" target="UwD6m1JZilUZtlp3aEf4-3" edge="1">
          <mxGeometry width="50" height="50" relative="1" as="geometry">
            <mxPoint x="170" y="370" as="sourcePoint" />
            <mxPoint x="220" y="320" as="targetPoint" />
          </mxGeometry>
        </mxCell>
        <mxCell id="UwD6m1JZilUZtlp3aEf4-70" value="" style="endArrow=classic;html=1;rounded=0;comic=0;strokeColor=default;align=center;verticalAlign=middle;fontFamily=Helvetica;fontSize=11;fontColor=default;labelBackgroundColor=default;flowAnimation=1;exitX=-0.039;exitY=0.625;exitDx=0;exitDy=0;exitPerimeter=0;entryX=0;entryY=0.505;entryDx=0;entryDy=0;entryPerimeter=0;" parent="1" source="UwD6m1JZilUZtlp3aEf4-3" target="UwD6m1JZilUZtlp3aEf4-2" edge="1">
          <mxGeometry width="50" height="50" relative="1" as="geometry">
            <mxPoint x="170" y="370" as="sourcePoint" />
            <mxPoint x="220" y="320" as="targetPoint" />
          </mxGeometry>
        </mxCell>
        <mxCell id="UwD6m1JZilUZtlp3aEf4-71" style="edgeStyle=none;rounded=0;comic=0;orthogonalLoop=1;jettySize=auto;html=1;entryX=0;entryY=0.491;entryDx=0;entryDy=0;entryPerimeter=0;strokeColor=default;align=center;verticalAlign=middle;fontFamily=Helvetica;fontSize=11;fontColor=default;labelBackgroundColor=default;startFill=1;endArrow=classic;endFill=1;flowAnimation=1;" parent="1" source="UwD6m1JZilUZtlp3aEf4-2" target="UwD6m1JZilUZtlp3aEf4-2" edge="1">
          <mxGeometry relative="1" as="geometry" />
        </mxCell>
        <mxCell id="UwD6m1JZilUZtlp3aEf4-74" value="" style="endArrow=classic;startArrow=classic;html=1;rounded=0;comic=0;strokeColor=default;align=center;verticalAlign=middle;fontFamily=Helvetica;fontSize=11;fontColor=default;labelBackgroundColor=default;flowAnimation=1;exitX=1.004;exitY=0.149;exitDx=0;exitDy=0;exitPerimeter=0;entryX=0;entryY=0.5;entryDx=0;entryDy=0;" parent="1" source="UwD6m1JZilUZtlp3aEf4-61" target="UwD6m1JZilUZtlp3aEf4-2" edge="1">
          <mxGeometry width="50" height="50" relative="1" as="geometry">
            <mxPoint x="170" y="440" as="sourcePoint" />
            <mxPoint x="220" y="390" as="targetPoint" />
          </mxGeometry>
        </mxCell>
      </root>
    </mxGraphModel>
  </diagram>
</mxfile>
